# Blender 4.2.3 LTS
# www.blender.org
mtllib millstone.mtl
o casing
v 0.341729 0.000950 1.767913
v 0.341729 0.064654 1.767913
v 0.341729 0.000950 -0.767913
v 0.341729 0.064654 -0.767913
v 0.658271 0.000950 1.767913
v 0.658271 0.064654 1.767913
v 0.658271 0.000950 -0.767913
v 0.658271 0.064654 -0.767913
v -0.987686 -0.001301 1.040683
v -0.987686 0.058860 1.040683
v -0.987686 -0.001301 0.808321
v -0.987686 0.058860 0.808321
v 1.987686 -0.001301 1.040683
v 1.987686 0.058860 1.040683
v 1.987686 -0.001301 0.808321
v 1.987686 0.058860 0.808321
v -0.967328 0.023683 0.817146
v -0.967328 0.364694 0.515627
v -0.816118 0.023683 0.817146
v -0.816118 0.364694 0.515627
v -0.816118 0.024905 1.004346
v -0.967328 0.024905 1.004346
v -0.967328 0.595390 0.513592
v -0.816118 0.595389 0.513592
v -0.967328 0.360157 0.485184
v -0.967328 0.015647 0.183289
v -0.816118 0.360157 0.485184
v -0.816118 0.015647 0.183289
v -0.816118 0.587342 0.487362
v -0.967328 0.587342 0.487362
v -0.967328 0.017174 -0.003768
v -0.816118 0.017174 -0.003767
v 0.366798 0.377993 -0.769162
v -0.171704 -0.014728 -0.769162
v -0.171704 -0.014728 -0.920372
v 0.734928 0.725316 -0.690022
v 0.734928 0.725316 -1.000214
v 0.265071 0.725316 -1.000214
v 0.265071 0.725316 -0.690022
v 0.265071 0.275776 -0.690022
v -1.000542 0.370978 0.583919
v -1.000542 0.633190 0.583919
v -1.000542 0.633190 0.416081
v -1.000542 0.370978 0.416081
v 2.000542 0.370978 0.416081
v 2.000542 0.633190 0.416081
v 2.000542 0.633190 0.583919
v 2.000542 0.370978 0.583919
v 0.349140 0.641247 2.002469
v 0.349140 0.641248 1.692277
v 0.650860 0.641247 2.002469
v 0.650860 0.641248 1.692277
v -0.171704 -0.014729 1.781277
v -0.171704 -0.014729 1.932487
v 0.366798 0.377993 1.932487
v 0.366798 0.377993 1.781277
v -0.088367 -0.084985 1.781277
v 0.450135 0.307737 1.781277
v -0.088367 -0.084985 1.932487
v 0.450135 0.307737 1.932487
v 0.301094 0.275775 1.950078
v 0.301094 0.275776 1.754982
v 0.698906 0.275776 1.754982
v 0.698906 0.275775 1.950078
v 0.634577 0.378066 1.781277
v 0.634577 0.378066 1.932487
v 1.172703 -0.014972 1.932487
v 1.172703 -0.014972 1.781277
v 0.551097 0.307980 1.781277
v 1.089223 -0.085058 1.781277
v 0.551097 0.307980 1.932487
v 1.089223 -0.085058 1.932487
v 0.349140 0.359844 2.002469
v 0.650860 0.359844 2.002469
v 0.650860 0.359844 1.692277
v 0.349140 0.359844 1.692277
v 0.301094 -0.002301 1.950078
v 0.301094 -0.002301 1.754982
v 0.698906 -0.002301 1.754982
v 0.698906 -0.002301 1.950078
v 0.265071 0.275775 2.002469
v 0.265071 0.725315 2.002469
v 0.265071 0.725316 1.692277
v 0.734928 0.725316 1.692277
v 0.734928 0.725315 2.002469
v 0.265071 0.275776 1.692277
v 0.734928 0.275776 1.692277
v 0.734928 0.275775 2.002469
v 0.349140 0.359844 1.955583
v 0.349140 0.641247 1.955583
v 0.349140 0.641247 1.748603
v 0.650860 0.641247 1.748603
v 0.650860 0.641247 1.955583
v 0.349140 0.359844 1.748603
v 0.650860 0.359844 1.748603
v 0.650860 0.359844 1.955583
v 0.366798 0.377993 -0.920372
v -0.088367 -0.084984 -0.920372
v 0.450135 0.307737 -0.920372
v -0.088367 -0.084985 -0.769162
v 0.450135 0.307737 -0.769162
v 0.265071 0.275776 -1.000214
v 0.734928 0.275776 -1.000214
v 0.734928 0.275776 -0.690022
v 0.634577 0.378066 -0.920372
v 0.634577 0.378067 -0.769162
v 1.172703 -0.014971 -0.769162
v 1.172703 -0.014971 -0.920372
v 0.551097 0.307980 -0.920372
v 1.089223 -0.085058 -0.920372
v 0.551097 0.307980 -0.769162
v 1.089223 -0.085058 -0.769162
v 0.301094 0.275776 -0.751571
v 0.698906 0.275776 -0.751571
v 0.698906 0.275776 -0.946667
v 0.301094 0.275776 -0.946667
v 0.301094 -0.002301 -0.751571
v 0.698906 -0.002301 -0.751571
v 0.698906 -0.002301 -0.946667
v 0.301094 -0.002301 -0.946667
v 0.349140 0.359844 -0.690022
v 0.349140 0.641248 -0.690022
v 0.349140 0.641248 -1.000214
v 0.650860 0.641248 -1.000214
v 0.650860 0.641248 -0.690022
v 0.349140 0.359844 -1.000214
v 0.650860 0.359844 -1.000214
v 0.650860 0.359844 -0.690022
v 0.349140 0.359844 -0.736908
v 0.349140 0.641248 -0.736908
v 0.349140 0.641248 -0.943887
v 0.650860 0.641248 -0.943887
v 0.650860 0.641248 -0.736908
v 0.349140 0.359844 -0.943887
v 0.650860 0.359844 -0.943887
v 0.650860 0.359844 -0.736908
v 1.250271 0.370978 0.416081
v 0.500000 0.370978 0.416081
v -0.250271 0.370978 0.416081
v -0.250271 0.633190 0.416081
v 0.500000 0.633190 0.416081
v 1.250271 0.633190 0.416081
v -0.250271 0.370978 0.583919
v 0.500000 0.370978 0.583919
v 1.250271 0.370978 0.583919
v 1.250271 0.633190 0.583919
v 0.500000 0.633190 0.583919
v -0.250271 0.633190 0.583919
v 0.265071 0.275776 0.653554
v 0.265071 0.725316 0.653554
v 0.265071 0.725316 0.343362
v 0.734928 0.725316 0.343362
v 0.734928 0.725316 0.653554
v 0.265071 0.275776 0.343362
v 0.734928 0.275776 0.343362
v 0.734928 0.275776 0.653554
v 0.349140 0.359844 0.653554
v 0.349140 0.641248 0.653554
v 0.349140 0.641248 0.343362
v 0.650860 0.641248 0.343362
v 0.650860 0.641248 0.653554
v 0.349140 0.359844 0.343362
v 0.650860 0.359844 0.343362
v 0.650860 0.359844 0.653554
v 0.349140 0.359844 0.606668
v 0.349140 0.641248 0.606668
v 0.349140 0.641248 0.399688
v 0.650860 0.641248 0.399688
v 0.650860 0.641248 0.606668
v 0.349140 0.359844 0.399688
v 0.650860 0.359844 0.399688
v 0.650860 0.359844 0.606668
v 1.813062 0.023683 0.817146
v 1.813062 0.024905 1.004346
v 1.813062 0.595390 0.513592
v 1.813062 0.364694 0.515627
v 1.964272 0.023683 0.817146
v 1.964272 0.364694 0.515627
v 1.964272 0.024905 1.004346
v 1.964272 0.595389 0.513592
v 1.813062 0.360157 0.485184
v 1.813062 0.587342 0.487362
v 1.813062 0.017174 -0.003768
v 1.813062 0.015647 0.183289
v 1.964272 0.360157 0.485184
v 1.964272 0.015647 0.183289
v 1.964272 0.587342 0.487362
v 1.964272 0.017174 -0.003767
v -0.987686 -0.001301 -0.048003
v -0.987686 -0.001301 0.184360
v -0.987686 0.058860 0.184360
v -0.987686 0.058860 -0.048003
v 1.987686 -0.001301 -0.048003
v 1.987686 0.058860 -0.048003
v 1.987686 -0.001301 0.184360
v 1.987686 0.058860 0.184360
v 0.995895 -0.001301 -0.048003
v 0.004105 -0.001301 -0.048003
v 0.004105 0.058860 -0.048003
v 0.995895 0.058860 -0.048003
v 0.004105 -0.001301 0.184360
v 0.995895 -0.001301 0.184360
v 0.995895 0.058860 0.184360
v 0.004105 0.058860 0.184360
v 0.995895 -0.001301 0.808321
v 0.004105 -0.001301 0.808321
v 0.004105 0.058860 0.808321
v 0.995895 0.058860 0.808321
v 0.004105 -0.001301 1.040683
v 0.995895 -0.001301 1.040683
v 0.995895 0.058860 1.040683
v 0.004105 0.058860 1.040683
v 0.341729 0.000950 0.077362
v 0.341729 0.000950 0.922638
v 0.341729 0.064654 0.922638
v 0.341729 0.064654 0.077362
v 0.658271 0.000950 0.922638
v 0.658271 0.000950 0.077362
v 0.658271 0.064654 0.077362
v 0.658271 0.064654 0.922638
v 0.332154 -0.003949 0.669060
v 0.332154 0.069207 0.669060
v 0.332154 -0.003949 0.329541
v 0.332154 0.069207 0.329541
v 0.671673 -0.003949 0.669060
v 0.671673 0.069207 0.669060
v 0.671673 -0.003949 0.329541
v 0.671673 0.069207 0.329541
vn 1.0000 -0.0000 -0.0000
vn -0.0000 -0.0000 -1.0000
vn -0.0000 -1.0000 -0.0000
vn -0.0000 -0.0000 1.0000
vn -0.0000 1.0000 -0.0000
vn -1.0000 -0.0000 -0.0000
vn -0.0000 -0.0088 -1.0000
vn -0.0000 0.6521 0.7581
vn -0.0000 -1.0000 0.0065
vn -0.0000 -0.6624 -0.7492
vn -0.0000 -1.0000 -0.0082
vn -0.0000 0.6526 -0.7577
vn -0.0000 -0.0096 1.0000
vn -0.0000 -0.6591 0.7521
vn -0.5892 0.8080 -0.0000
vn 0.5892 -0.8080 -0.0000
vn 0.6430 -0.7659 -0.0000
vn 0.6446 0.7646 -0.0000
vn 0.5898 0.8075 -0.0000
vn -0.5898 -0.8075 -0.0000
vn -0.6430 0.7659 -0.0000
vn -0.6446 -0.7646 -0.0000
vt 0.287562 0.136787
vt 0.206532 0.863213
vt 0.206532 0.136787
vt 0.287088 0.135366
vt 0.044946 0.864634
vt 0.044946 0.135366
vt 0.288124 0.132706
vt 0.044086 0.867294
vt 0.044086 0.132706
vt 0.288124 0.867294
vt 0.044472 0.863213
vt 0.287562 0.863213
vt 0.044472 0.136787
vt 0.043674 0.133944
vt 0.288536 0.866056
vt 0.043674 0.866056
vt 0.000000 0.000000
vt 1.000000 1.000000
vt 0.000000 1.000000
vt 0.266985 0.192892
vt 0.067911 0.812903
vt 0.067911 0.192892
vt 0.266985 0.812903
vt 0.665401 0.000000
vt 0.334601 1.000000
vt 0.334601 0.000000
vt 0.289150 0.129965
vt 0.043193 0.870036
vt 0.043193 0.129965
vt 0.289150 0.870036
vt 0.046689 0.860273
vt 0.287452 0.139727
vt 0.046689 0.139727
vt 0.395127 0.178923
vt 0.395127 0.821077
vt 0.665753 0.000000
vt 0.332876 1.000000
vt 0.332876 0.000000
vt 0.603502 0.821077
vt 0.603502 0.178923
vt 0.665753 1.000000
vt 0.042826 0.131064
vt 0.289517 0.868936
vt 0.042826 0.868936
vt 0.257075 0.236686
vt 0.079713 0.763314
vt 0.079713 0.236686
vt 0.332876 0.210085
vt 0.332876 0.945005
vt 0.332876 0.978327
vt 0.332876 0.866583
vt 0.280934 0.150304
vt 0.049695 0.849696
vt 0.049695 0.150304
vt 0.287452 0.860273
vt 0.603502 0.178923
vt 0.395127 0.821077
vt 0.125502 0.136787
vt 0.287088 0.864634
vt 0.288536 0.133944
vt 0.125502 0.863213
vt 1.000000 0.000000
vt 0.665401 1.000000
vt 0.289517 0.131064
vt 0.669678 1.000000
vt 0.669678 0.000000
vt 0.257075 0.763314
vt 0.280934 0.849696
s 0
usemtl casing
f 6/1/1 217/2/1 220/3/1
f 4/4/2 7/5/2 3/6/2
f 5/7/3 214/8/3 217/9/3
f 6/4/4 1/5/4 5/6/4
f 215/9/5 6/10/5 220/8/5
f 16/1/2 205/2/2 208/3/2
f 9/11/6 12/1/6 11/12/6
f 10/1/4 209/2/4 212/3/4
f 16/13/1 13/12/1 15/11/1
f 209/14/3 11/15/3 206/16/3
f 211/14/5 16/15/5 208/16/5
f 194/1/2 197/2/2 200/3/2
f 24/17/7 18/18/7 23/19/7
f 21/20/1 20/21/1 24/22/1
f 22/20/8 24/21/8 23/22/8
f 18/22/6 22/23/6 23/21/6
f 21/24/9 17/25/9 19/26/9
f 20/22/10 17/23/10 18/21/10
f 32/17/11 26/18/11 31/19/11
f 32/22/1 27/23/1 28/21/1
f 30/20/12 32/21/12 31/22/12
f 25/20/6 31/21/6 26/22/6
f 29/24/13 25/25/13 27/26/13
f 27/20/14 26/21/14 28/22/14
f 42/27/6 44/28/6 41/29/6
f 45/29/1 47/30/1 48/28/1
f 45/27/3 145/28/3 137/29/3
f 43/27/5 148/28/5 140/29/5
f 119/31/2 116/32/2 115/33/2
f 136/34/5 121/35/5 128/34/5
f 39/36/6 102/37/6 40/38/6
f 132/39/3 123/40/3 124/39/3
f 38/24/5 36/25/5 37/26/5
f 103/38/1 36/41/1 104/37/1
f 142/42/2 45/43/2 137/44/2
f 145/42/4 47/43/4 146/44/4
f 82/36/6 86/37/6 81/38/6
f 96/34/5 73/35/5 74/34/5
f 87/38/1 85/41/1 88/37/1
f 92/39/3 50/40/3 52/39/3
f 79/31/2 62/32/2 63/33/2
f 83/24/5 85/25/5 84/26/5
f 54/22/15 56/23/15 53/21/15
f 56/20/2 57/21/2 53/22/2
f 57/22/16 60/23/16 59/21/16
f 59/22/4 55/23/4 54/21/4
f 67/45/17 70/46/17 68/47/17
f 56/24/18 60/25/18 58/26/18
f 67/20/19 65/21/19 66/22/19
f 65/22/2 70/23/2 69/21/2
f 69/22/20 72/23/20 71/21/20
f 72/20/4 66/21/4 71/22/4
f 65/17/21 71/18/21 66/19/21
f 100/45/22 35/46/22 98/47/22
f 88/37/3 61/48/3 64/49/3
f 63/50/3 88/37/3 64/49/3
f 86/37/3 63/50/3 62/51/3
f 81/38/3 62/51/3 61/48/3
f 119/52/3 117/53/3 120/54/3
f 61/33/4 80/55/4 64/32/4
f 62/33/6 77/55/6 61/32/6
f 80/31/1 63/32/1 64/33/1
f 82/41/4 73/35/4 49/39/4
f 83/36/2 52/39/2 50/40/2
f 85/36/4 49/39/4 51/56/4
f 86/38/2 50/40/2 76/34/2
f 84/41/2 75/57/2 52/39/2
f 88/38/4 51/56/4 74/34/4
f 81/37/4 74/34/4 73/35/4
f 87/37/2 76/34/2 75/57/2
f 91/40/2 95/57/2 94/34/2
f 93/56/4 89/35/4 96/34/4
f 95/57/6 52/39/6 75/57/6
f 90/39/3 51/56/3 49/39/3
f 89/35/1 49/39/1 73/35/1
f 94/34/5 75/57/5 76/34/5
f 93/56/6 74/34/6 51/56/6
f 91/40/1 76/34/1 50/40/1
f 33/20/15 35/21/15 34/22/15
f 97/20/2 98/21/2 35/22/2
f 98/22/16 101/23/16 100/21/16
f 100/22/4 33/23/4 34/21/4
f 107/45/17 110/46/17 108/47/17
f 97/24/18 101/25/18 99/26/18
f 107/20/19 105/21/19 106/22/19
f 105/22/2 110/23/2 109/21/2
f 109/22/20 112/23/20 111/21/20
f 112/20/4 106/21/4 111/22/4
f 105/17/21 111/18/21 106/19/21
f 114/49/3 40/38/3 113/48/3
f 103/37/3 114/49/3 115/50/3
f 102/37/3 115/50/3 116/51/3
f 113/48/3 102/37/3 116/51/3
f 117/31/4 114/32/4 113/33/4
f 116/33/6 117/55/6 113/32/6
f 118/31/1 115/32/1 114/33/1
f 39/41/4 121/35/4 122/39/4
f 38/36/2 124/39/2 123/40/2
f 36/36/4 122/39/4 125/56/4
f 102/38/2 123/40/2 126/34/2
f 37/41/2 127/57/2 124/39/2
f 104/38/4 125/56/4 128/34/4
f 40/37/4 128/34/4 121/35/4
f 103/37/2 126/34/2 127/57/2
f 131/40/2 135/57/2 134/34/2
f 133/56/4 129/35/4 136/34/4
f 135/57/6 124/39/6 127/57/6
f 130/39/3 125/56/3 122/39/3
f 129/35/1 122/39/1 121/35/1
f 134/34/5 127/57/5 126/34/5
f 133/56/6 128/34/6 125/56/6
f 131/40/1 126/34/1 123/40/1
f 41/42/4 148/43/4 42/44/4
f 143/42/4 147/43/4 148/44/4
f 144/42/4 146/43/4 147/44/4
f 43/42/2 139/43/2 44/44/2
f 140/42/2 138/43/2 139/44/2
f 141/42/2 137/43/2 138/44/2
f 142/27/5 47/28/5 46/29/5
f 141/27/5 146/28/5 142/29/5
f 140/27/5 147/28/5 141/29/5
f 139/27/3 41/28/3 44/29/3
f 138/27/3 143/28/3 139/29/3
f 137/27/3 144/28/3 138/29/3
f 150/36/6 154/37/6 149/38/6
f 172/34/5 157/35/5 164/34/5
f 155/38/1 153/41/1 156/37/1
f 168/39/3 159/40/3 160/39/3
f 151/24/5 153/25/5 152/26/5
f 154/37/3 156/37/3 149/38/3
f 150/41/4 157/35/4 158/39/4
f 151/36/2 160/39/2 159/40/2
f 153/36/4 158/39/4 161/56/4
f 154/38/2 159/40/2 162/34/2
f 152/41/2 163/57/2 160/39/2
f 156/38/4 161/56/4 164/34/4
f 149/37/4 164/34/4 157/35/4
f 155/37/2 162/34/2 163/57/2
f 167/40/2 171/57/2 170/34/2
f 169/56/4 165/35/4 172/34/4
f 171/57/6 160/39/6 163/57/6
f 166/39/3 161/56/3 158/39/3
f 165/35/1 158/39/1 157/35/1
f 170/34/5 163/57/5 162/34/5
f 169/56/6 164/34/6 161/56/6
f 167/40/1 162/34/1 159/40/1
f 180/17/7 176/18/7 175/19/7
f 179/20/1 178/21/1 180/22/1
f 174/20/8 180/21/8 175/22/8
f 176/22/6 174/23/6 175/21/6
f 179/24/9 173/25/9 177/26/9
f 178/22/10 173/23/10 176/21/10
f 188/17/11 184/18/11 183/19/11
f 188/22/1 185/23/1 186/21/1
f 182/20/12 188/21/12 183/22/12
f 181/20/6 183/21/6 184/22/6
f 187/24/13 181/25/13 185/26/13
f 185/20/14 184/21/14 186/22/14
f 211/58/4 13/11/4 14/13/4
f 4/4/2 8/59/2 7/5/2
f 205/16/3 209/60/3 206/15/3
f 6/4/4 2/59/4 1/5/4
f 13/14/3 205/15/3 15/16/3
f 207/16/5 211/60/5 208/15/5
f 9/11/6 10/13/6 12/1/6
f 10/14/5 207/15/5 12/16/5
f 16/13/1 14/1/1 13/12/1
f 200/3/2 198/61/2 199/58/2
f 199/58/2 189/11/2 192/13/2
f 204/3/4 202/61/4 203/58/4
f 24/17/7 20/62/7 18/18/7
f 21/20/1 19/23/1 20/21/1
f 22/20/8 21/23/8 24/21/8
f 18/22/6 17/20/6 22/23/6
f 21/24/9 22/63/9 17/25/9
f 20/22/10 19/20/10 17/23/10
f 32/17/11 28/62/11 26/18/11
f 32/22/1 29/20/1 27/23/1
f 30/20/12 29/23/12 32/21/12
f 25/20/6 30/23/6 31/21/6
f 29/24/13 30/63/13 25/25/13
f 27/20/14 25/23/14 26/21/14
f 42/27/6 43/30/6 44/28/6
f 45/29/1 46/27/1 47/30/1
f 45/27/3 48/30/3 145/28/3
f 43/27/5 42/30/5 148/28/5
f 119/31/2 120/55/2 116/32/2
f 136/34/5 129/35/5 121/35/5
f 39/36/6 38/41/6 102/37/6
f 132/39/3 131/40/3 123/40/3
f 38/24/5 39/63/5 36/25/5
f 103/38/1 37/36/1 36/41/1
f 142/42/2 46/64/2 45/43/2
f 145/42/4 48/64/4 47/43/4
f 82/36/6 83/41/6 86/37/6
f 96/34/5 89/35/5 73/35/5
f 87/38/1 84/36/1 85/41/1
f 92/39/3 91/40/3 50/40/3
f 79/31/2 78/55/2 62/32/2
f 83/24/5 82/63/5 85/25/5
f 54/22/15 55/20/15 56/23/15
f 56/20/2 58/23/2 57/21/2
f 57/22/16 58/20/16 60/23/16
f 59/22/4 60/20/4 55/23/4
f 56/24/18 55/63/18 60/25/18
f 67/20/19 68/23/19 65/21/19
f 65/22/2 68/20/2 70/23/2
f 69/22/20 70/20/20 72/23/20
f 72/20/4 67/23/4 66/21/4
f 65/17/21 69/62/21 71/18/21
f 88/37/3 81/38/3 61/48/3
f 63/50/3 87/37/3 88/37/3
f 86/37/3 87/37/3 63/50/3
f 81/38/3 86/37/3 62/51/3
f 61/33/4 77/31/4 80/55/4
f 62/33/6 78/31/6 77/55/6
f 80/31/1 79/55/1 63/32/1
f 82/41/4 81/37/4 73/35/4
f 83/36/2 84/41/2 52/39/2
f 85/36/4 82/41/4 49/39/4
f 86/38/2 83/36/2 50/40/2
f 84/41/2 87/37/2 75/57/2
f 88/38/4 85/36/4 51/56/4
f 81/37/4 88/38/4 74/34/4
f 87/37/2 86/38/2 76/34/2
f 91/40/2 92/39/2 95/57/2
f 93/56/4 90/39/4 89/35/4
f 95/57/6 92/39/6 52/39/6
f 90/39/3 93/56/3 51/56/3
f 89/35/1 90/39/1 49/39/1
f 94/34/5 95/57/5 75/57/5
f 93/56/6 96/34/6 74/34/6
f 91/40/1 94/34/1 76/34/1
f 33/20/15 97/23/15 35/21/15
f 97/20/2 99/23/2 98/21/2
f 98/22/16 99/20/16 101/23/16
f 100/22/4 101/20/4 33/23/4
f 97/24/18 33/63/18 101/25/18
f 107/20/19 108/23/19 105/21/19
f 105/22/2 108/20/2 110/23/2
f 109/22/20 110/20/20 112/23/20
f 112/20/4 107/23/4 106/21/4
f 105/17/21 109/62/21 111/18/21
f 114/49/3 104/37/3 40/38/3
f 103/37/3 104/37/3 114/49/3
f 102/37/3 103/37/3 115/50/3
f 113/48/3 40/38/3 102/37/3
f 117/31/4 118/55/4 114/32/4
f 116/33/6 120/31/6 117/55/6
f 118/31/1 119/55/1 115/32/1
f 39/41/4 40/37/4 121/35/4
f 38/36/2 37/41/2 124/39/2
f 36/36/4 39/41/4 122/39/4
f 102/38/2 38/36/2 123/40/2
f 37/41/2 103/37/2 127/57/2
f 104/38/4 36/36/4 125/56/4
f 40/37/4 104/38/4 128/34/4
f 103/37/2 102/38/2 126/34/2
f 131/40/2 132/39/2 135/57/2
f 133/56/4 130/39/4 129/35/4
f 135/57/6 132/39/6 124/39/6
f 130/39/3 133/56/3 125/56/3
f 129/35/1 130/39/1 122/39/1
f 134/34/5 135/57/5 127/57/5
f 133/56/6 136/34/6 128/34/6
f 131/40/1 134/34/1 126/34/1
f 41/42/4 143/64/4 148/43/4
f 143/42/4 144/64/4 147/43/4
f 144/42/4 145/64/4 146/43/4
f 43/42/2 140/64/2 139/43/2
f 140/42/2 141/64/2 138/43/2
f 141/42/2 142/64/2 137/43/2
f 142/27/5 146/30/5 47/28/5
f 141/27/5 147/30/5 146/28/5
f 140/27/5 148/30/5 147/28/5
f 139/27/3 143/30/3 41/28/3
f 138/27/3 144/30/3 143/28/3
f 137/27/3 145/30/3 144/28/3
f 150/36/6 151/41/6 154/37/6
f 172/34/5 165/35/5 157/35/5
f 155/38/1 152/36/1 153/41/1
f 168/39/3 167/40/3 159/40/3
f 151/24/5 150/63/5 153/25/5
f 154/37/3 155/37/3 156/37/3
f 150/41/4 149/37/4 157/35/4
f 151/36/2 152/41/2 160/39/2
f 153/36/4 150/41/4 158/39/4
f 154/38/2 151/36/2 159/40/2
f 152/41/2 155/37/2 163/57/2
f 156/38/4 153/36/4 161/56/4
f 149/37/4 156/38/4 164/34/4
f 155/37/2 154/38/2 162/34/2
f 167/40/2 168/39/2 171/57/2
f 169/56/4 166/39/4 165/35/4
f 171/57/6 168/39/6 160/39/6
f 166/39/3 169/56/3 161/56/3
f 165/35/1 166/39/1 158/39/1
f 170/34/5 171/57/5 163/57/5
f 169/56/6 172/34/6 164/34/6
f 167/40/1 170/34/1 162/34/1
f 180/17/7 178/62/7 176/18/7
f 179/20/1 177/23/1 178/21/1
f 174/20/8 179/23/8 180/21/8
f 176/22/6 173/20/6 174/23/6
f 179/24/9 174/63/9 173/25/9
f 178/22/10 177/20/10 173/23/10
f 188/17/11 186/62/11 184/18/11
f 188/22/1 187/20/1 185/23/1
f 182/20/12 187/23/12 188/21/12
f 181/20/6 182/23/6 183/21/6
f 187/24/13 182/63/13 181/25/13
f 185/20/14 181/23/14 184/21/14
f 190/11/6 192/1/6 189/12/6
f 191/1/4 201/2/4 204/3/4
f 194/13/1 195/12/1 193/11/1
f 201/14/3 189/15/3 198/16/3
f 203/14/5 194/15/5 200/16/5
f 191/14/5 199/15/5 192/16/5
f 190/11/6 191/13/6 192/1/6
f 203/58/4 195/11/4 196/13/4
f 194/13/1 196/1/1 195/12/1
f 197/16/3 201/60/3 198/15/3
f 195/14/3 197/15/3 193/16/3
f 199/16/5 203/60/5 200/15/5
f 216/3/6 3/12/6 213/2/6
f 211/58/4 209/2/4 210/61/4
f 207/58/2 11/11/2 12/13/2
f 207/58/2 205/2/2 206/61/2
f 2/13/6 214/61/6 1/11/6
f 215/58/6 213/2/6 214/61/6
f 216/7/5 8/8/5 4/9/5
f 215/7/5 219/8/5 216/9/5
f 218/7/3 3/8/3 7/9/3
f 217/7/3 213/8/3 218/9/3
f 219/58/1 7/11/1 8/13/1
f 220/3/1 218/61/1 219/58/1
f 59/45/22 53/46/22 57/47/22
f 222/62/6 223/65/6 221/66/6
f 224/62/2 227/65/2 223/66/2
f 228/62/1 225/65/1 227/66/1
f 226/62/4 221/65/4 225/66/4
f 227/62/3 221/65/3 223/66/3
f 224/62/5 226/65/5 228/66/5
f 79/52/3 77/53/3 78/54/3
f 6/1/1 5/12/1 217/2/1
f 5/7/3 1/10/3 214/8/3
f 215/9/5 2/7/5 6/10/5
f 16/1/2 15/12/2 205/2/2
f 10/1/4 9/12/4 209/2/4
f 209/14/3 9/60/3 11/15/3
f 211/14/5 14/60/5 16/15/5
f 194/1/2 193/12/2 197/2/2
f 67/45/17 72/67/17 70/46/17
f 100/45/22 34/67/22 35/46/22
f 119/52/3 118/68/3 117/53/3
f 107/45/17 112/67/17 110/46/17
f 211/58/4 210/61/4 13/11/4
f 205/16/3 210/14/3 209/60/3
f 13/14/3 210/60/3 205/15/3
f 207/16/5 212/14/5 211/60/5
f 10/14/5 212/60/5 207/15/5
f 200/3/2 197/2/2 198/61/2
f 199/58/2 198/61/2 189/11/2
f 204/3/4 201/2/4 202/61/4
f 191/1/4 190/12/4 201/2/4
f 201/14/3 190/60/3 189/15/3
f 203/14/5 196/60/5 194/15/5
f 191/14/5 204/60/5 199/15/5
f 203/58/4 202/61/4 195/11/4
f 197/16/3 202/14/3 201/60/3
f 195/14/3 202/60/3 197/15/3
f 199/16/5 204/14/5 203/60/5
f 216/3/6 4/1/6 3/12/6
f 211/58/4 212/3/4 209/2/4
f 207/58/2 206/61/2 11/11/2
f 207/58/2 208/3/2 205/2/2
f 2/13/6 215/58/6 214/61/6
f 215/58/6 216/3/6 213/2/6
f 216/7/5 219/10/5 8/8/5
f 215/7/5 220/10/5 219/8/5
f 218/7/3 213/10/3 3/8/3
f 217/7/3 214/10/3 213/8/3
f 219/58/1 218/61/1 7/11/1
f 220/3/1 217/2/1 218/61/1
f 59/45/22 54/67/22 53/46/22
f 222/62/6 224/18/6 223/65/6
f 224/62/2 228/18/2 227/65/2
f 228/62/1 226/18/1 225/65/1
f 226/62/4 222/18/4 221/65/4
f 227/62/3 225/18/3 221/65/3
f 224/62/5 222/18/5 226/65/5
f 79/52/3 80/68/3 77/53/3
