# Blender 4.2.3 LTS
# www.blender.org
mtllib windmill_generator.mtl
o windmill_generator
v 0.000000 0.000000 1.000000
v 0.000000 0.000000 0.000000
v 0.000000 0.062500 -0.000000
v 0.000000 0.062500 1.000000
v 1.000000 0.000000 0.000000
v 1.000000 0.062500 -0.000000
v 1.000000 0.000000 1.000000
v 1.000000 0.062500 1.000000
v 0.636724 0.043006 0.203125
v 0.636724 0.043006 0.140625
v 0.501529 0.459093 0.140625
v 0.501529 0.459093 0.203125
v 0.696165 0.062320 0.140625
v 0.560971 0.478407 0.140625
v 0.696165 0.062320 0.203125
v 0.560971 0.478407 0.203125
v 0.303835 0.062320 0.203125
v 0.303835 0.062320 0.140625
v 0.439029 0.478407 0.140625
v 0.439029 0.478407 0.203125
v 0.363276 0.043006 0.140625
v 0.498471 0.459093 0.140625
v 0.363276 0.043006 0.203125
v 0.498471 0.459093 0.203125
v 0.636724 0.043006 0.671875
v 0.636724 0.043006 0.609375
v 0.501529 0.459093 0.609375
v 0.501529 0.459093 0.671875
v 0.696165 0.062320 0.609375
v 0.560971 0.478407 0.609375
v 0.696165 0.062320 0.671875
v 0.560971 0.478407 0.671875
v 0.303835 0.062320 0.671875
v 0.303835 0.062320 0.609375
v 0.439029 0.478407 0.609375
v 0.439029 0.478407 0.671875
v 0.363276 0.043006 0.609375
v 0.498471 0.459093 0.609375
v 0.363276 0.043006 0.671875
v 0.498471 0.459093 0.671875
v 0.343750 0.343750 1.000000
v 0.343750 0.343750 0.687500
v 0.343750 0.656250 0.687500
v 0.343750 0.656250 1.000000
v 0.656250 0.343750 0.687500
v 0.656250 0.656250 0.687500
v 0.656250 0.343750 1.000000
v 0.656250 0.656250 1.000000
vn -1.0000 -0.0000 -0.0000
vn -0.0000 -0.0000 -1.0000
vn 1.0000 -0.0000 -0.0000
vn -0.0000 -0.0000 1.0000
vn -0.0000 -1.0000 -0.0000
vn -0.0000 1.0000 -0.0000
vn -0.9511 -0.3090 -0.0000
vn 0.9511 0.3090 -0.0000
vn 0.3090 -0.9511 -0.0000
vn -0.3090 0.9511 -0.0000
vn -0.9511 0.3090 -0.0000
vn 0.9511 -0.3090 -0.0000
vn -0.3090 -0.9511 -0.0000
vn 0.3090 0.9511 -0.0000
vt 0.375000 0.867188
vt 0.250000 0.875000
vt 0.375000 0.875000
vt 0.500000 0.867188
vt 0.500000 0.875000
vt 0.125000 0.867188
vt 0.000000 0.875000
vt 0.125000 0.875000
vt 0.250000 0.867188
vt 0.375000 1.000000
vt 0.250000 1.000000
vt 0.023438 0.804688
vt 0.015625 0.859375
vt 0.023438 0.859375
vt 0.031250 0.804688
vt 0.031250 0.859375
vt 0.007813 0.804688
vt 0.000000 0.859375
vt 0.007813 0.859375
vt 0.023438 0.867188
vt 0.015625 0.867188
vt 0.054688 0.804688
vt 0.046875 0.859375
vt 0.054688 0.859375
vt 0.062500 0.859375
vt 0.039063 0.804688
vt 0.039063 0.859375
vt 0.046875 0.804688
vt 0.054688 0.867188
vt 0.046875 0.867188
vt 0.085938 0.804688
vt 0.078125 0.859375
vt 0.085938 0.859375
vt 0.093750 0.804688
vt 0.093750 0.859375
vt 0.070313 0.804688
vt 0.070313 0.859375
vt 0.085938 0.867188
vt 0.078125 0.867188
vt 0.117188 0.804688
vt 0.109375 0.859375
vt 0.117188 0.859375
vt 0.125000 0.859375
vt 0.101563 0.804688
vt 0.101563 0.859375
vt 0.109375 0.804688
vt 0.117188 0.867188
vt 0.109375 0.867188
vt 0.242188 0.789063
vt 0.203125 0.828125
vt 0.242188 0.828125
vt 0.281250 0.789063
vt 0.281250 0.828125
vt 0.164063 0.789063
vt 0.125000 0.828125
vt 0.164063 0.828125
vt 0.203125 0.789063
vt 0.242188 0.867188
vt 0.203125 0.867188
vt 0.000000 0.867188
vt 0.125000 1.000000
vt 0.015625 0.804688
vt 0.000000 0.804688
vt 0.007813 0.867188
vt 0.062500 0.804688
vt 0.039063 0.867188
vt 0.078125 0.804688
vt 0.070313 0.867188
vt 0.125000 0.804688
vt 0.101563 0.867188
vt 0.125000 0.789063
vt 0.164063 0.867188
s 0
usemtl Material.001
f 4/1/1 2/2/1 1/3/1
f 3/4/2 5/3/2 2/5/2
f 6/6/3 7/7/3 5/8/3
f 8/9/4 1/8/4 7/2/4
f 2/10/5 7/2/5 1/3/5
f 4/11/6 6/8/6 3/2/6
f 12/12/7 10/13/7 9/14/7
f 11/15/2 13/14/2 10/16/2
f 14/17/8 15/18/8 13/19/8
f 15/13/4 12/17/4 9/19/4
f 10/20/9 15/13/9 9/14/9
f 12/21/10 14/19/10 11/13/10
f 20/22/11 18/23/11 17/24/11
f 18/25/2 22/22/2 21/24/2
f 22/26/12 23/16/12 21/27/12
f 24/28/4 17/27/4 23/23/4
f 18/29/13 23/23/13 17/24/13
f 20/30/14 22/27/14 19/23/14
f 28/31/7 26/32/7 25/33/7
f 27/34/2 29/33/2 26/35/2
f 30/36/8 31/25/8 29/37/8
f 31/32/4 28/36/4 25/37/4
f 26/38/9 31/32/9 25/33/9
f 28/39/10 30/37/10 27/32/10
f 36/40/11 34/41/11 33/42/11
f 34/43/2 38/40/2 37/42/2
f 38/44/12 39/35/12 37/45/12
f 40/46/4 33/45/4 39/41/4
f 34/47/13 39/41/13 33/42/13
f 36/48/14 38/45/14 35/41/14
f 44/49/1 42/50/1 41/51/1
f 43/52/2 45/51/2 42/53/2
f 46/54/3 47/55/3 45/56/3
f 48/57/4 41/56/4 47/50/4
f 42/58/5 47/50/5 41/51/5
f 44/59/6 46/56/6 43/50/6
f 4/1/1 3/9/1 2/2/1
f 3/4/2 6/1/2 5/3/2
f 6/6/3 8/60/3 7/7/3
f 8/9/4 4/6/4 1/8/4
f 2/10/5 5/11/5 7/2/5
f 4/11/6 8/61/6 6/8/6
f 12/12/7 11/62/7 10/13/7
f 11/15/2 14/12/2 13/14/2
f 14/17/8 16/63/8 15/18/8
f 15/13/4 16/62/4 12/17/4
f 10/20/9 13/21/9 15/13/9
f 12/21/10 16/64/10 14/19/10
f 20/22/11 19/28/11 18/23/11
f 18/25/2 19/65/2 22/22/2
f 22/26/12 24/15/12 23/16/12
f 24/28/4 20/26/4 17/27/4
f 18/29/13 21/30/13 23/23/13
f 20/30/14 24/66/14 22/27/14
f 28/31/7 27/67/7 26/32/7
f 27/34/2 30/31/2 29/33/2
f 30/36/8 32/65/8 31/25/8
f 31/32/4 32/67/4 28/36/4
f 26/38/9 29/39/9 31/32/9
f 28/39/10 32/68/10 30/37/10
f 36/40/11 35/46/11 34/41/11
f 34/43/2 35/69/2 38/40/2
f 38/44/12 40/34/12 39/35/12
f 40/46/4 36/44/4 33/45/4
f 34/47/13 37/48/13 39/41/13
f 36/48/14 40/70/14 38/45/14
f 44/49/1 43/57/1 42/50/1
f 43/52/2 46/49/2 45/51/2
f 46/54/3 48/71/3 47/55/3
f 48/57/4 44/54/4 41/56/4
f 42/58/5 45/59/5 47/50/5
f 44/59/6 48/72/6 46/56/6
