# Blender 4.2.3 LTS
# www.blender.org
mtllib flywheel_large_axle.mtl
o Cube
v 0.091486 0.091486 -0.499583
v 0.091486 -0.091486 -0.499583
v 0.091486 0.091486 0.499583
v 0.091486 -0.091486 0.499583
v -0.091486 0.091486 -0.499583
v -0.091486 -0.091486 -0.499583
v -0.091486 0.091486 0.499583
v -0.091486 -0.091486 0.499583
v -0.091595 -0.091595 0.000000
v 0.091595 -0.091595 0.000000
v -0.091595 0.091595 -0.000000
v 0.091595 0.091595 -0.000000
v -0.091595 0.091595 -0.192416
v 0.091595 0.091595 -0.192416
v -0.091595 -0.091595 -0.192416
v 0.091595 -0.091595 -0.192416
v -0.091595 -0.091595 0.192416
v 0.091595 -0.091595 0.192416
v -0.091595 0.091595 0.192416
v 0.091595 0.091595 0.192416
v -0.076205 -0.152410 0.000000
v -0.076205 -0.152410 -0.320173
v -0.076205 -0.152410 0.320173
v -0.076205 0.152410 -0.000000
v -0.076205 0.152410 -0.320173
v -0.076205 0.152410 0.320173
v 0.076205 -0.152410 0.000000
v -0.152410 0.076205 -0.000000
v 0.076205 -0.152410 -0.320173
v -0.152410 0.076205 -0.320173
v -0.152410 0.076205 0.320173
v 0.076205 -0.152410 0.320173
v 0.076205 0.152410 -0.000000
v 0.076205 0.152410 -0.320173
v -0.152410 -0.076205 0.000000
v 0.076205 0.152410 0.320173
v -0.152410 -0.076205 -0.320173
v -0.152410 -0.076205 0.320173
v 0.152410 0.076205 -0.000000
v 0.152410 0.076205 -0.320173
v 0.152410 0.076205 0.320173
v 0.152410 -0.076205 0.000000
v 0.152410 -0.076205 -0.320173
v 0.152410 -0.076205 0.320173
vn -0.0000 -0.0000 1.0000
vn 0.9697 -0.2445 0.0004
vn -0.0000 0.9469 -0.3215
vn 0.9469 -0.0000 -0.3215
vn 0.9694 0.2453 -0.0000
vn -0.2453 0.9694 -0.0000
vn -0.9694 0.2453 -0.0000
vn -1.0000 -0.0000 -0.0000
vn 0.2445 -0.9697 -0.0004
vn 1.0000 -0.0000 -0.0000
vn -0.9469 -0.0000 -0.3215
vn 0.9697 0.2445 0.0004
vn 0.9694 -0.2453 -0.0000
vn -0.9697 -0.2445 0.0004
vn -0.9694 -0.2453 -0.0000
vn -0.9697 -0.2445 -0.0004
vn 0.2453 0.9694 -0.0000
vn 0.2445 0.9697 -0.0004
vn -0.0000 -0.0000 -1.0000
vn 0.2453 -0.9694 -0.0000
vn -0.0000 1.0000 -0.0000
vn -0.0000 -0.9469 0.3215
vn 0.9469 -0.0000 0.3215
vn -0.2445 -0.9697 -0.0004
vn -0.0000 -0.9469 -0.3215
vn -0.2453 -0.9694 -0.0000
vn -0.0000 0.9469 0.3215
vn -0.2445 -0.9697 0.0004
vn -0.9697 0.2445 0.0004
vn -0.2445 0.9697 -0.0004
vn -0.9697 0.2445 -0.0004
vn -0.2445 0.9697 0.0004
vn -0.9469 -0.0000 0.3215
vn 0.2445 0.9697 0.0004
vn 0.9697 0.2445 -0.0004
vn 0.9697 -0.2445 -0.0004
vn 0.2445 -0.9697 0.0004
vn -0.0000 -1.0000 -0.0000
vt 1.000000 1.000000
vt 0.000000 0.000000
vt 1.000000 0.000000
vt 0.070450 0.979412
vt 0.500786 0.738952
vt 0.070450 0.738952
vt 0.493839 0.266230
vt 0.926631 0.026542
vt 0.942336 0.634921
vt 0.278198 0.476191
vt 0.056818 0.634921
vt 0.493839 0.505918
vt 0.926631 0.745606
vt 0.926631 0.505918
vt 0.942336 0.158730
vt 0.720956 0.317460
vt 0.720956 0.158730
vt 0.926631 0.266230
vt 0.942336 0.476191
vt 0.720956 0.476191
vt 0.493839 0.745606
vt 0.278198 0.317460
vt 0.056818 0.476191
vt 0.278198 0.158730
vt 0.926631 0.985294
vt 0.000000 1.000000
vt 0.500786 0.498492
vt 0.070450 0.498492
vt 0.070450 0.258033
vt 0.070450 0.017573
vt 0.500786 0.258033
vt 0.942336 0.317460
vt 0.056818 0.158730
vt 0.942336 0.000000
vt 0.056818 0.000000
vt 0.056818 0.317460
s 0
usemtl Material.002
f 4/1/1 7/2/1 8/3/1
f 4/4/2 32/5/2 18/6/2
f 34/7/3 5/8/3 25/7/3
f 1/9/4 43/10/4 2/11/4
f 33/12/5 20/13/5 12/14/5
f 19/15/6 28/16/6 31/17/6
f 13/18/7 24/12/7 25/7/7
f 34/7/3 1/8/3 5/8/3
f 28/16/6 13/19/6 30/20/6
f 24/12/7 19/13/7 26/21/7
f 28/16/8 37/10/8 35/22/8
f 2/11/9 43/10/9 16/23/9
f 39/16/10 44/24/10 42/22/10
f 33/12/5 14/18/5 34/7/5
f 38/24/8 31/17/8 28/16/8
f 37/10/11 5/9/11 6/11/11
f 36/21/12 3/25/12 20/13/12
f 4/1/1 3/26/1 7/2/1
f 18/6/13 27/27/13 10/28/13
f 23/5/14 8/4/14 17/6/14
f 15/29/15 21/27/15 9/28/15
f 6/30/16 22/31/16 15/29/16
f 21/27/15 17/6/15 9/28/15
f 39/16/17 14/19/17 12/32/17
f 40/20/18 1/9/18 14/19/18
f 39/16/17 20/15/17 41/17/17
f 5/26/19 2/3/19 6/1/19
f 18/33/20 42/22/20 44/24/20
f 1/9/4 40/20/4 43/10/4
f 24/12/21 36/21/21 33/12/21
f 16/29/13 27/27/13 29/31/13
f 23/5/22 4/4/22 8/4/22
f 44/24/23 3/34/23 4/35/23
f 16/23/20 42/22/20 10/36/20
f 37/10/24 6/11/24 15/23/24
f 29/31/25 6/30/25 2/30/25
f 17/33/26 35/22/26 9/36/26
f 3/25/27 26/21/27 7/25/27
f 35/22/26 15/23/26 9/36/26
f 8/35/28 38/24/28 17/33/28
f 26/21/29 19/13/29 7/25/29
f 30/20/30 13/19/30 5/9/30
f 33/12/5 36/21/5 20/13/5
f 19/15/6 11/32/6 28/16/6
f 13/18/7 11/14/7 24/12/7
f 5/8/31 13/18/31 25/7/31
f 28/16/8 30/20/8 37/10/8
f 28/16/6 11/32/6 13/19/6
f 7/34/32 19/15/32 31/17/32
f 24/12/7 11/14/7 19/13/7
f 33/12/5 12/14/5 14/18/5
f 35/22/8 38/24/8 28/16/8
f 42/22/10 43/10/10 40/20/10
f 7/34/33 38/24/33 8/35/33
f 18/6/13 32/5/13 27/27/13
f 41/17/34 20/15/34 3/34/34
f 15/29/15 22/31/15 21/27/15
f 21/27/15 23/5/15 17/6/15
f 39/16/17 40/20/17 14/19/17
f 39/16/17 12/32/17 20/15/17
f 34/7/35 14/18/35 1/8/35
f 18/33/20 10/36/20 42/22/20
f 39/16/10 41/17/10 44/24/10
f 16/29/13 10/28/13 27/27/13
f 2/30/36 16/29/36 29/31/36
f 16/23/20 43/10/20 42/22/20
f 4/35/37 18/33/37 44/24/37
f 17/33/26 38/24/26 35/22/26
f 35/22/26 37/10/26 15/23/26
f 27/27/38 23/5/38 21/27/38
f 42/22/10 40/20/10 39/16/10
f 37/10/11 30/20/11 5/9/11
f 5/26/19 1/2/19 2/3/19
f 34/7/21 25/7/21 24/12/21
f 24/12/21 26/21/21 36/21/21
f 33/12/21 34/7/21 24/12/21
f 23/5/22 32/5/22 4/4/22
f 44/24/23 41/17/23 3/34/23
f 29/31/25 22/31/25 6/30/25
f 3/25/27 36/21/27 26/21/27
f 7/34/33 31/17/33 38/24/33
f 21/27/38 22/31/38 29/31/38
f 27/27/38 32/5/38 23/5/38
f 21/27/38 29/31/38 27/27/38
