# Blender 4.2.3 LTS
# www.blender.org
mtllib big_crankshaft.mtl
o axle
v 0.045852 0.077187 0.172199
v -0.034830 0.071964 0.172199
v 0.045852 0.077187 -0.172199
v -0.034830 0.071964 -0.172199
v 0.040421 0.161087 0.172199
v -0.040261 0.155865 0.172199
v 0.040421 0.161087 -0.172199
v -0.040261 0.155865 -0.172199
v 0.066036 0.192260 0.166497
v 0.066036 -0.199405 0.166497
v 0.066036 0.192260 0.257362
v 0.066036 -0.199405 0.257362
v -0.066328 0.192260 0.166497
v -0.066328 -0.199405 0.166497
v -0.066328 0.192260 0.257362
v -0.066328 -0.199405 0.257362
v 0.066036 0.192260 -0.257747
v 0.066036 -0.199405 -0.257747
v 0.066036 0.192260 -0.166882
v 0.066036 -0.199405 -0.166882
v -0.066328 0.192260 -0.257747
v -0.066328 -0.199405 -0.257747
v -0.066328 0.192260 -0.166882
v -0.066328 -0.199405 -0.166882
v 0.123181 -0.124709 0.475122
v 0.123181 -0.124709 0.498377
v 0.123181 0.125291 0.498377
v 0.123181 0.125291 0.475122
v -0.126819 -0.124709 0.498377
v -0.126819 0.125291 0.498377
v -0.126819 -0.124709 0.475122
v -0.126819 0.125291 0.475122
v 0.041862 -0.042241 0.195760
v 0.041862 -0.042241 0.475122
v 0.041862 0.041844 0.475122
v 0.041862 0.041844 0.195760
v -0.046444 -0.042241 0.475122
v -0.046444 0.041844 0.475122
v -0.046444 -0.042241 0.195760
v -0.046444 0.041844 0.195760
v -0.002291 -0.059655 0.195760
v -0.002291 -0.059655 0.475122
v 0.060150 -0.000199 0.475122
v 0.060150 -0.000198 0.195760
v -0.064732 -0.000199 0.475122
v -0.002291 0.059258 0.475122
v -0.064732 -0.000198 0.195760
v -0.002291 0.059258 0.195760
v 0.060681 -0.062209 0.463494
v 0.060681 -0.062209 0.486749
v 0.060681 0.062791 0.486749
v 0.060681 0.062791 0.463494
v -0.064319 -0.062209 0.486749
v -0.064319 0.062791 0.486749
v -0.064319 -0.062209 0.463494
v -0.064319 0.062791 0.463494
v -0.123181 -0.124709 -0.475122
v -0.123181 -0.124709 -0.498377
v -0.123181 0.125291 -0.498377
v -0.123181 0.125291 -0.475122
v 0.126819 -0.124709 -0.498377
v 0.126819 0.125291 -0.498377
v 0.126819 -0.124709 -0.475122
v 0.126819 0.125291 -0.475122
v -0.041304 -0.042241 -0.195760
v -0.041304 -0.042241 -0.475122
v -0.041304 0.041844 -0.475122
v -0.041304 0.041844 -0.195760
v 0.047002 -0.042241 -0.475122
v 0.047002 0.041844 -0.475122
v 0.047002 -0.042241 -0.195760
v 0.047002 0.041844 -0.195760
v 0.002849 -0.059655 -0.195760
v 0.002849 -0.059655 -0.475122
v -0.059592 -0.000198 -0.475122
v -0.059592 -0.000198 -0.195760
v 0.065290 -0.000198 -0.475122
v 0.002849 0.059258 -0.475122
v 0.065290 -0.000198 -0.195760
v 0.002849 0.059258 -0.195760
v -0.060681 -0.062209 -0.463494
v -0.060681 -0.062209 -0.486749
v -0.060681 0.062791 -0.486749
v -0.060681 0.062791 -0.463494
v 0.064319 -0.062209 -0.486749
v 0.064319 0.062791 -0.486749
v 0.064319 -0.062209 -0.463494
v 0.064319 0.062791 -0.463494
v 0.002428 0.058205 0.172199
v -0.055495 0.114613 0.172199
v 0.002428 0.058205 -0.172199
v -0.055495 0.114613 -0.172199
v 0.061085 0.118439 0.172199
v 0.003163 0.174846 0.172199
v 0.061085 0.118439 -0.172199
v 0.003163 0.174846 -0.172199
vn 0.0646 -0.9979 -0.0000
vn -0.0000 -0.0000 -1.0000
vn -0.0646 0.9979 -0.0000
vn -0.0000 -0.0000 1.0000
vn 0.9979 0.0646 -0.0000
vn -0.9979 -0.0646 -0.0000
vn 1.0000 -0.0000 -0.0000
vn -1.0000 -0.0000 -0.0000
vn -0.0000 1.0000 -0.0000
vn -0.0000 -1.0000 -0.0000
vn 0.6896 -0.7242 -0.0000
vn -0.6896 0.7242 -0.0000
vn -0.6896 -0.7242 -0.0000
vn 0.6896 0.7242 -0.0000
vn -0.6977 -0.7164 -0.0000
vn 0.6977 0.7164 -0.0000
vn 0.7164 -0.6977 -0.0000
vn -0.7164 0.6977 -0.0000
vt 0.625000 0.000000
vt 0.375000 0.250000
vt 0.375000 0.000000
vt 0.625000 0.250000
vt 0.375000 0.500000
vt 0.625000 0.750000
vt 0.375000 0.750000
vt 0.375000 1.000000
vt 0.125000 0.750000
vt 0.125000 0.500000
vt 0.875000 0.500000
vt 0.625000 0.500000
vt 0.625000 1.000000
vt 0.875000 0.750000
vt 0.945571 0.320295
vt 0.320295 0.320295
vt 0.320295 0.493244
vt 0.258366 0.816482
vt 0.280433 0.904751
vt 0.258366 0.904751
vt 0.595811 0.176537
vt 0.507543 0.088268
vt 0.595811 0.088268
vt 0.200593 0.904751
vt 0.178526 0.816482
vt 0.200593 0.816482
vt 0.595811 0.000000
vt 0.507543 0.000000
vt 0.236299 0.816482
vt 0.214232 0.904751
vt 0.214232 0.816482
vt 0.236299 0.904751
vt 0.595811 0.375141
vt 0.573744 0.595811
vt 0.573744 0.375141
vt 0.994706 0.617879
vt 0.972639 0.595812
vt 0.994706 0.595812
vt 0.627019 0.220671
vt 0.649086 0.000000
vt 0.649086 0.220671
vt 0.972639 0.639946
vt 0.972639 0.617879
vt 0.662013 0.485476
vt 0.639946 0.264805
vt 0.662013 0.264805
vt 0.671153 0.220671
vt 0.741658 0.485476
vt 0.726054 0.706147
vt 0.726054 0.485476
vt 0.889664 0.617878
vt 0.867597 0.595811
vt 0.889664 0.595811
vt 0.611415 0.220671
vt 0.627019 0.000000
vt 0.900431 0.375141
vt 0.878364 0.397207
vt 0.878364 0.375141
vt 0.757261 0.706147
vt 0.757261 0.485476
vt 0.595811 0.220671
vt 0.035705 0.948885
vt 0.057772 0.993019
vt 0.035705 0.993019
vt 0.419275 0.875123
vt 0.375141 0.830989
vt 0.419275 0.830989
vt 0.956946 0.970952
vt 0.934879 0.926818
vt 0.956946 0.926818
vt 0.331006 0.875123
vt 0.331006 0.830989
vt 0.975773 0.088268
vt 0.953706 0.132403
vt 0.953706 0.088268
vt 0.979013 0.926818
vt 0.979013 0.970952
vt 0.280433 0.816482
vt 0.507543 0.176537
vt 0.178526 0.904751
vt 0.595811 0.595811
vt 0.994706 0.639946
vt 0.639946 0.485476
vt 0.671153 0.000000
vt 0.741658 0.706147
vt 0.867597 0.617878
vt 0.611415 0.000000
vt 0.900431 0.397207
vt 0.057772 0.948885
vt 0.375141 0.875123
vt 0.934879 0.970952
vt 0.975773 0.132403
vt 0.945571 0.493244
s 0
usemtl Material_planks
f 2/1/1 3/2/1 1/3/1
f 4/4/2 7/5/2 3/2/2
f 7/5/3 6/6/3 5/7/3
f 6/6/4 1/8/4 5/7/4
f 7/5/5 1/9/5 3/10/5
f 4/11/6 6/6/6 8/12/6
f 2/1/1 4/4/1 3/2/1
f 4/4/2 8/12/2 7/5/2
f 7/5/3 8/12/3 6/6/3
f 6/6/4 2/13/4 1/8/4
f 7/5/5 5/7/5 1/9/5
f 4/11/6 2/14/6 6/6/6
f 10/15/7 9/16/7 11/17/7
f 12/15/4 11/16/4 15/17/4
f 16/15/8 15/16/8 13/17/8
f 14/15/2 13/16/2 9/17/2
f 15/15/9 11/16/9 9/17/9
f 12/15/10 16/16/10 14/17/10
f 18/15/7 17/16/7 19/17/7
f 20/15/4 19/16/4 23/17/4
f 24/15/8 23/16/8 21/17/8
f 22/15/2 21/16/2 17/17/2
f 23/15/9 19/16/9 17/17/9
f 20/15/10 24/16/10 22/17/10
f 28/18/7 26/19/7 25/20/7
f 27/21/4 29/22/4 26/23/4
f 30/24/8 31/25/8 29/26/8
f 32/27/2 25/22/2 31/28/2
f 26/29/10 31/30/10 25/31/10
f 28/32/9 30/18/9 27/20/9
f 36/33/7 34/34/7 33/35/7
f 35/36/4 37/37/4 34/38/4
f 38/39/8 39/40/8 37/41/8
f 40/36/2 33/42/2 39/43/2
f 34/44/10 39/45/10 33/46/10
f 36/40/9 38/47/9 35/41/9
f 44/48/11 42/49/11 41/50/11
f 43/51/4 45/52/4 42/53/4
f 46/54/12 47/55/12 45/39/12
f 47/56/2 44/57/2 41/58/2
f 42/59/13 47/48/13 41/60/13
f 44/27/14 46/54/14 43/61/14
f 52/62/7 50/63/7 49/64/7
f 51/65/4 53/66/4 50/67/4
f 54/68/8 55/69/8 53/70/8
f 56/66/2 49/71/2 55/72/2
f 50/73/10 55/74/10 49/75/10
f 52/68/9 54/76/9 51/77/9
f 28/18/7 27/78/7 26/19/7
f 27/21/4 30/79/4 29/22/4
f 30/24/8 32/80/8 31/25/8
f 32/27/2 28/23/2 25/22/2
f 26/29/10 29/32/10 31/30/10
f 28/32/9 32/29/9 30/18/9
f 36/33/7 35/81/7 34/34/7
f 35/36/4 38/43/4 37/37/4
f 38/39/8 40/55/8 39/40/8
f 40/36/2 36/82/2 33/42/2
f 34/44/10 37/83/10 39/45/10
f 36/40/9 40/84/9 38/47/9
f 44/48/11 43/85/11 42/49/11
f 43/51/4 46/86/4 45/52/4
f 46/54/12 48/87/12 47/55/12
f 47/56/2 48/88/2 44/57/2
f 42/59/13 45/85/13 47/48/13
f 44/27/14 48/87/14 46/54/14
f 52/62/7 51/89/7 50/63/7
f 51/65/4 54/90/4 53/66/4
f 54/68/8 56/91/8 55/69/8
f 56/66/2 52/90/2 49/71/2
f 50/73/10 53/92/10 55/74/10
f 52/68/9 56/70/9 54/76/9
f 60/18/8 58/19/8 57/20/8
f 59/21/2 61/22/2 58/23/2
f 62/24/7 63/25/7 61/26/7
f 64/27/4 57/22/4 63/28/4
f 58/29/10 63/30/10 57/31/10
f 60/32/9 62/18/9 59/20/9
f 68/33/8 66/34/8 65/35/8
f 67/36/2 69/37/2 66/38/2
f 70/39/7 71/40/7 69/41/7
f 72/36/4 65/42/4 71/43/4
f 66/44/10 71/45/10 65/46/10
f 68/40/9 70/47/9 67/41/9
f 76/48/13 74/49/13 73/50/13
f 75/51/2 77/52/2 74/53/2
f 78/54/14 79/55/14 77/39/14
f 79/56/4 76/57/4 73/58/4
f 74/59/11 79/48/11 73/60/11
f 76/27/12 78/54/12 75/61/12
f 84/62/8 82/63/8 81/64/8
f 83/65/2 85/66/2 82/67/2
f 86/68/7 87/69/7 85/70/7
f 88/66/4 81/71/4 87/72/4
f 82/73/10 87/74/10 81/75/10
f 84/68/9 86/76/9 83/77/9
f 60/18/8 59/78/8 58/19/8
f 59/21/2 62/79/2 61/22/2
f 62/24/7 64/80/7 63/25/7
f 64/27/4 60/23/4 57/22/4
f 58/29/10 61/32/10 63/30/10
f 60/32/9 64/29/9 62/18/9
f 68/33/8 67/81/8 66/34/8
f 67/36/2 70/43/2 69/37/2
f 70/39/7 72/55/7 71/40/7
f 72/36/4 68/82/4 65/42/4
f 66/44/10 69/83/10 71/45/10
f 68/40/9 72/84/9 70/47/9
f 76/48/13 75/85/13 74/49/13
f 75/51/2 78/86/2 77/52/2
f 78/54/14 80/87/14 79/55/14
f 79/56/4 80/88/4 76/57/4
f 74/59/11 77/85/11 79/48/11
f 76/27/12 80/87/12 78/54/12
f 84/62/8 83/89/8 82/63/8
f 83/65/2 86/90/2 85/66/2
f 86/68/7 88/91/7 87/69/7
f 88/66/4 84/90/4 81/71/4
f 82/73/10 85/92/10 87/74/10
f 84/68/9 88/70/9 86/76/9
f 10/15/7 11/17/7 12/93/7
f 12/15/4 15/17/4 16/93/4
f 16/15/8 13/17/8 14/93/8
f 14/15/2 9/17/2 10/93/2
f 15/15/9 9/17/9 13/93/9
f 12/15/10 14/17/10 10/93/10
f 18/15/7 19/17/7 20/93/7
f 20/15/4 23/17/4 24/93/4
f 24/15/8 21/17/8 22/93/8
f 22/15/2 17/17/2 18/93/2
f 23/15/9 17/17/9 21/93/9
f 20/15/10 22/17/10 18/93/10
f 90/1/15 91/2/15 89/3/15
f 92/4/2 95/5/2 91/2/2
f 95/5/16 94/6/16 93/7/16
f 94/6/4 89/8/4 93/7/4
f 95/5/17 89/9/17 91/10/17
f 92/11/18 94/6/18 96/12/18
f 90/1/15 92/4/15 91/2/15
f 92/4/2 96/12/2 95/5/2
f 95/5/16 96/12/16 94/6/16
f 94/6/4 90/13/4 89/8/4
f 95/5/17 93/7/17 89/9/17
f 92/11/18 90/14/18 94/6/18
