# Blender 4.2.3 LTS
# www.blender.org
mtllib motor.mtl
o stator
v 0.786709 0.500000 0.835019
v 0.786709 0.500000 0.164981
v 0.786709 0.164981 0.500000
v 0.786709 0.835019 0.500000
v 0.786709 0.500000 0.500000
v 0.000000 0.000000 0.750000
v 1.000000 1.000000 0.750000
v 0.000000 0.164981 0.667509
v 0.786709 0.164981 0.667509
v 0.000000 1.000000 0.750000
v 1.000000 0.000000 0.750000
v 0.000000 0.835019 0.667509
v 0.786709 0.835019 0.667509
v 0.786709 0.500000 0.667509
v 0.000000 1.000000 0.250000
v 1.000000 0.000000 0.250000
v 0.000000 0.835019 0.332491
v 0.786709 0.835019 0.332491
v 0.786709 0.500000 0.332491
v 0.000000 0.000000 0.250000
v 1.000000 1.000000 0.250000
v 0.000000 0.164981 0.332491
v 0.786709 0.164981 0.332491
v 0.000000 0.750000 1.000000
v 0.000000 0.667509 0.835019
v 0.786709 0.667509 0.835019
v 1.000000 0.750000 0.000000
v 1.000000 0.750000 1.000000
v 0.000000 0.750000 0.000000
v 0.000000 0.667509 0.164981
v 0.786709 0.667509 0.164981
v 0.786709 0.667509 0.500000
v 0.786709 0.667509 0.667509
v 1.000000 0.750000 0.750000
v 1.000000 0.750000 0.250000
v 0.786709 0.667509 0.332491
v 1.000000 0.250000 0.000000
v 1.000000 0.250000 1.000000
v 0.000000 0.250000 0.000000
v 0.000000 0.332491 0.164981
v 0.786709 0.332491 0.164981
v 0.000000 0.250000 1.000000
v 0.000000 0.332491 0.835019
v 0.786709 0.332491 0.835019
v 0.786709 0.332491 0.500000
v 0.786709 0.332491 0.667509
v 1.000000 0.250000 0.750000
v 1.000000 0.250000 0.250000
v 0.786709 0.332491 0.332491
v 0.047643 0.835019 0.332491
v 0.047643 0.667509 0.164981
v 0.047643 0.835019 0.667509
v 0.047643 0.667509 0.835019
v 0.047643 0.164981 0.667509
v 0.047643 0.332491 0.835019
v 0.047643 0.164981 0.332491
v 0.047643 0.332491 0.164981
v 0.020505 0.535970 0.573278
v 0.020505 0.570843 0.538405
v 0.030423 0.431352 0.538405
v 0.020505 0.431352 0.538405
v 0.030423 0.570843 0.538405
v 0.020505 0.466224 0.433787
v 0.020505 0.431352 0.468659
v 0.030423 0.570843 0.468659
v 0.020505 0.570843 0.468659
v 0.030423 0.431352 0.468659
v 0.020505 0.535970 0.433787
v 0.030423 0.535970 0.573278
v 0.030423 0.535970 0.433787
v 0.020505 0.466224 0.573278
v 0.030423 0.466224 0.433787
v 0.030423 0.466224 0.573278
vn -0.0000 -0.7071 0.7071
vn -1.0000 -0.0000 -0.0000
vn -0.0000 0.7071 -0.7071
vn 1.0000 -0.0000 -0.0000
vn -0.0000 -0.0000 -1.0000
vn -0.0000 0.4582 0.8889
vn -0.0000 0.4391 -0.8984
vn -0.0000 -0.0000 1.0000
vn 0.9981 0.0435 -0.0435
vn -0.0000 1.0000 -0.0000
vn -0.0000 -1.0000 -0.0000
vn -0.9973 -0.0520 -0.0520
vn -0.0000 0.7071 0.7071
vn -0.0000 -0.7071 -0.7071
vn 0.9982 -0.0429 0.0429
vn -0.9973 0.0517 -0.0517
vn 0.9982 0.0427 0.0427
vn -0.9974 0.0508 0.0508
vn -0.0000 -0.8935 0.4490
vn -0.0000 -0.4552 0.8904
vn -0.0000 0.8953 -0.4454
vn 0.9981 -0.0437 -0.0437
vn -0.0000 -0.8982 -0.4395
vn -0.0000 -0.4361 -0.8999
vn -0.0000 0.8905 0.4550
vn -0.9974 -0.0511 0.0511
vn -0.0000 0.4391 -0.8985
vn -0.0000 -0.4362 -0.8999
vt 0.680717 0.054715
vt 0.593921 0.891687
vt 0.593921 0.054715
vt 0.112541 0.648286
vt 0.112911 0.779848
vt 0.093255 0.649606
vt 0.612666 0.687927
vt 0.612666 0.896287
vt 0.587924 0.687927
vt 0.664678 0.790599
vt 0.594330 0.839943
vt 0.681239 0.841321
vt 0.589779 0.856763
vt 0.589779 0.887427
vt 0.684804 0.849511
vt 0.684804 0.880174
vt 0.589041 0.836461
vt 0.687880 0.867125
vt 0.589041 0.867125
vt 0.662152 0.687927
vt 0.686894 0.271208
vt 0.686894 0.687927
vt 0.112160 0.512662
vt 0.091865 0.371935
vt 0.111767 0.372787
vt 0.150429 0.512139
vt 0.131354 0.373625
vt 0.150633 0.374450
vt 0.675333 0.878629
vt 0.645162 0.872607
vt 0.648709 0.870434
vt 0.612666 0.271208
vt 0.150041 0.775332
vt 0.131531 0.646986
vt 0.150232 0.645705
vt 0.168651 0.644444
vt 0.169124 0.511883
vt 0.169612 0.375262
vt 0.662152 0.896287
vt 0.593683 0.056998
vt 0.680954 0.889403
vt 0.593860 0.891104
vt 0.662152 0.271208
vt 0.612666 0.062849
vt 0.662152 0.062849
vt 0.131444 0.512398
vt 0.131616 0.777573
vt 0.092571 0.512930
vt 0.111361 0.228456
vt 0.131260 0.230467
vt 0.150843 0.232446
vt 0.587924 0.271208
vt 0.687880 0.836461
vt 0.687880 0.897788
vt 0.675333 0.857758
vt 0.645162 0.863917
vt 0.658294 0.847323
vt 0.624216 0.847323
vt 0.634520 0.866089
vt 0.607177 0.857758
vt 0.624216 0.889065
vt 0.634520 0.870434
vt 0.638067 0.872607
vt 0.680717 0.891687
vt 0.611077 0.790172
vt 0.687440 0.842454
vt 0.687428 0.894293
vt 0.587612 0.893779
vt 0.587612 0.842865
vt 0.658294 0.889065
vt 0.680778 0.055297
vt 0.589041 0.897788
vt 0.648709 0.866089
vt 0.638067 0.863917
vt 0.607177 0.878629
s 0
usemtl Material
f 42/1/1 11/2/1 38/3/1
f 36/4/2 18/5/2 31/6/2
f 21/1/3 29/2/3 15/3/3
f 34/7/4 7/8/4 28/9/4
f 27/1/5 39/2/5 29/3/5
f 24/10/2 12/11/2 25/12/2
f 39/10/2 22/11/2 40/12/2
f 29/10/2 40/11/2 30/12/2
f 15/10/2 30/11/2 17/12/2
f 50/13/6 66/14/6 65/13/6
f 52/15/7 59/16/7 12/16/7
f 2/17/8 51/18/8 57/19/8
f 55/19/9 60/18/9 73/19/9
f 1/17/5 55/18/5 53/19/5
f 3/17/10 56/18/10 54/19/10
f 42/10/2 25/11/2 43/12/2
f 10/10/2 17/11/2 12/12/2
f 24/1/8 38/2/8 28/3/8
f 35/20/4 37/21/4 27/22/4
f 19/23/2 41/24/2 49/25/2
f 6/1/11 16/2/11 11/3/11
f 14/26/2 45/27/2 46/28/2
f 25/29/12 59/30/12 58/31/12
f 20/10/2 8/11/2 22/12/2
f 28/9/4 47/32/4 34/7/4
f 7/1/10 15/2/10 10/3/10
f 13/33/2 32/34/2 33/35/2
f 6/10/2 43/11/2 8/12/2
f 26/36/2 13/33/2 33/35/2
f 1/37/2 46/28/2 44/38/2
f 7/8/4 35/20/4 21/39/4
f 7/40/13 24/41/13 28/42/13
f 27/22/4 21/39/4 35/20/4
f 48/43/4 11/44/4 16/45/4
f 5/46/2 49/25/2 45/27/2
f 4/47/2 36/4/2 32/34/2
f 32/34/2 19/23/2 5/46/2
f 34/7/4 48/43/4 35/20/4
f 26/36/2 14/26/2 1/37/2
f 33/35/2 5/46/2 14/26/2
f 36/4/2 2/48/2 19/23/2
f 45/27/2 23/49/2 3/50/2
f 37/21/4 48/43/4 16/45/4
f 9/51/2 44/38/2 46/28/2
f 46/28/2 3/50/2 9/51/2
f 23/49/2 49/25/2 41/24/2
f 11/44/4 47/32/4 38/52/4
f 37/1/14 20/2/14 39/3/14
f 4/17/11 52/18/11 50/19/11
f 50/18/1 31/17/1 18/53/1
f 53/18/14 13/17/14 26/53/14
f 54/18/3 44/17/3 9/53/3
f 57/18/13 23/17/13 41/53/13
f 58/54/14 62/19/14 69/18/14
f 63/54/13 67/19/13 72/18/13
f 66/54/1 70/19/1 65/18/1
f 61/54/3 73/19/3 60/18/3
f 50/18/15 70/19/15 51/19/15
f 43/55/16 61/56/16 8/57/16
f 56/19/17 72/18/17 67/19/17
f 22/58/18 63/59/18 40/60/18
f 53/13/19 58/14/19 69/13/19
f 56/15/20 64/16/20 22/16/20
f 57/13/21 63/14/21 72/13/21
f 53/18/22 62/19/22 52/19/22
f 51/15/23 68/16/23 30/16/23
f 54/13/24 61/14/24 60/13/24
f 55/15/25 71/16/25 43/16/25
f 17/61/26 68/62/26 66/63/26
f 42/1/1 6/64/1 11/2/1
f 21/1/3 27/64/3 29/2/3
f 27/1/5 37/64/5 39/2/5
f 24/10/2 10/65/2 12/11/2
f 39/10/2 20/65/2 22/11/2
f 29/10/2 39/65/2 40/11/2
f 15/10/2 29/65/2 30/11/2
f 50/13/6 17/14/6 66/14/6
f 52/15/27 62/15/27 59/16/27
f 2/17/8 31/53/8 51/18/8
f 51/66/8 30/67/8 40/68/8
f 57/19/8 41/17/8 2/17/8
f 51/66/8 40/68/8 57/69/8
f 55/19/9 54/18/9 60/18/9
f 1/17/5 44/53/5 55/18/5
f 55/66/5 43/67/5 25/68/5
f 53/19/5 26/17/5 1/17/5
f 55/66/5 25/68/5 53/69/5
f 3/17/10 23/53/10 56/18/10
f 56/66/10 22/67/10 8/68/10
f 54/19/10 9/17/10 3/17/10
f 56/66/10 8/68/10 54/69/10
f 42/10/2 24/65/2 25/11/2
f 10/10/2 15/65/2 17/11/2
f 24/1/8 42/64/8 38/2/8
f 35/20/4 48/43/4 37/21/4
f 19/23/2 2/48/2 41/24/2
f 6/1/11 20/64/11 16/2/11
f 14/26/2 5/46/2 45/27/2
f 25/29/12 12/70/12 59/30/12
f 20/10/2 6/65/2 8/11/2
f 28/9/4 38/52/4 47/32/4
f 7/1/10 21/64/10 15/2/10
f 13/33/2 4/47/2 32/34/2
f 6/10/2 42/65/2 43/11/2
f 1/37/2 14/26/2 46/28/2
f 7/8/4 34/7/4 35/20/4
f 7/40/13 10/71/13 24/41/13
f 48/43/4 47/32/4 11/44/4
f 5/46/2 19/23/2 49/25/2
f 4/47/2 18/5/2 36/4/2
f 32/34/2 36/4/2 19/23/2
f 34/7/4 47/32/4 48/43/4
f 26/36/2 33/35/2 14/26/2
f 33/35/2 32/34/2 5/46/2
f 36/4/2 31/6/2 2/48/2
f 45/27/2 49/25/2 23/49/2
f 46/28/2 45/27/2 3/50/2
f 37/1/14 16/64/14 20/2/14
f 4/17/11 13/53/11 52/18/11
f 52/66/11 12/67/11 17/68/11
f 50/19/11 18/17/11 4/17/11
f 52/66/11 17/68/11 50/69/11
f 50/18/1 51/19/1 31/17/1
f 53/18/14 52/19/14 13/17/14
f 54/18/3 55/19/3 44/17/3
f 57/18/13 56/19/13 23/17/13
f 58/54/14 59/72/14 62/19/14
f 63/54/13 64/72/13 67/19/13
f 66/54/1 68/72/1 70/19/1
f 61/54/3 71/72/3 73/19/3
f 50/18/15 65/18/15 70/19/15
f 43/55/16 71/73/16 61/56/16
f 56/19/17 57/18/17 72/18/17
f 22/58/18 64/74/18 63/59/18
f 53/13/19 25/14/19 58/14/19
f 56/15/20 67/15/20 64/16/20
f 57/13/21 40/14/21 63/14/21
f 53/18/22 69/18/22 62/19/22
f 51/15/23 70/15/23 68/16/23
f 54/13/28 8/14/28 61/14/28
f 55/15/25 73/15/25 71/16/25
f 17/61/26 30/75/26 68/62/26
o rotor
v -0.378810 -0.130493 0.131307
v -0.378810 0.129872 0.131307
v -0.378810 -0.130493 -0.131307
v -0.378810 0.129872 -0.131307
v 0.252239 -0.130493 0.131307
v 0.252239 0.129872 0.131307
v 0.252239 -0.130493 -0.131307
v 0.252239 0.129872 -0.131307
v -0.378810 -0.053715 0.156181
v -0.378810 0.053094 0.156181
v -0.378810 0.053094 -0.156181
v -0.378810 -0.053715 -0.156181
v 0.252239 0.053094 -0.156181
v 0.252239 -0.053715 -0.156181
v 0.252239 0.053094 0.156181
v 0.252239 -0.053715 0.156181
v -0.378810 -0.160523 -0.052060
v -0.378810 -0.160523 0.052060
v -0.378810 0.159902 0.052060
v -0.378810 0.159902 -0.052060
v 0.252239 -0.160523 0.052060
v 0.252239 -0.160523 -0.052060
v 0.252239 0.159902 -0.052060
v 0.252239 0.159902 0.052060
v 0.252239 -0.053715 -0.052060
v 0.252239 -0.053715 0.052060
v 0.252239 0.053094 -0.052060
v 0.252239 0.053094 0.052060
v -0.378810 -0.107169 0.104169
v -0.378810 -0.107169 -0.104169
v -0.378810 0.106547 0.104169
v -0.378810 0.106547 -0.104169
v -0.390950 -0.080544 0.231614
v -0.390950 0.077851 0.231614
v -0.390950 0.077851 -0.231614
v -0.390950 -0.080544 -0.231614
v 0.264378 0.077851 -0.231614
v 0.264378 -0.080544 -0.231614
v 0.264378 0.077851 0.231614
v 0.264378 -0.080544 0.231614
v -0.390950 -0.238939 -0.077205
v -0.390950 -0.238939 0.077205
v -0.390950 0.236246 0.077205
v -0.390950 0.236246 -0.077205
v 0.264378 -0.238939 0.077205
v 0.264378 -0.238939 -0.077205
v 0.264378 0.236246 -0.077205
v 0.264378 0.236246 0.077205
v -0.405490 -0.145019 0.266128
v -0.405490 0.142325 0.266128
v -0.405490 0.142325 -0.266128
v -0.405490 -0.145019 -0.266128
v 0.278919 0.142325 -0.266128
v 0.278919 -0.145019 -0.266128
v 0.278919 0.142325 0.266128
v 0.278919 -0.145019 0.266128
v -0.405490 -0.274344 -0.135205
v -0.405490 -0.274344 0.135205
v -0.405490 0.271651 0.135205
v -0.405490 0.271651 -0.135205
v 0.278919 -0.274344 0.135205
v 0.278919 -0.274344 -0.135205
v 0.278919 0.271651 -0.135205
v 0.278919 0.271651 0.135205
v -0.493252 -0.107169 0.104169
v -0.493252 -0.107169 -0.104169
v -0.493252 0.106547 0.104169
v -0.493252 0.106547 -0.104169
vn -1.0000 -0.0000 -0.0000
vn -0.0000 0.3082 -0.9513
vn 1.0000 -0.0000 -0.0000
vn -0.0000 0.3082 0.9513
vn -0.0000 -0.9351 0.3544
vn -0.0000 0.9351 0.3544
vn -0.0000 -0.3082 0.9513
vn 0.9873 -0.0000 -0.1589
vn -0.0000 -0.3082 -0.9513
vn 0.9882 0.1530 -0.0000
vn -0.0000 -1.0000 -0.0000
vn -0.0000 0.9351 -0.3544
vn -0.0000 0.3053 0.9522
vn -0.0000 -0.9351 -0.3544
vn -0.0000 0.9501 0.3118
vn 0.9250 -0.3799 -0.0000
vn 0.9216 -0.0000 -0.3882
vn 0.9250 0.3799 -0.0000
vn 0.9216 -0.0000 0.3882
vn -0.0000 -0.9422 -0.3351
vn 0.9876 -0.1570 -0.0000
vn -0.9873 -0.0000 -0.1589
vn -0.0000 0.9501 -0.3118
vn -0.9882 0.1530 -0.0000
vn -0.9873 -0.0000 0.1589
vn -0.0000 -0.3128 -0.9498
vn -0.0000 -0.3128 0.9498
vn -0.9876 -0.1570 -0.0000
vn -0.0000 -0.9422 0.3351
vn -0.0000 0.3053 -0.9522
vn 0.9873 -0.0000 0.1589
vn -0.0000 -0.0000 1.0000
vn -0.0000 -0.0000 -1.0000
vn -0.0000 1.0000 -0.0000
vn -0.0000 -0.4719 -0.8816
vn -0.0000 -0.8535 -0.5210
vn -0.0000 0.4719 -0.8816
vn -0.0000 -0.8535 0.5210
vn -0.0000 -0.4719 0.8816
vn -0.0000 0.8535 -0.5210
vn -0.0000 0.4719 0.8816
vn -0.9216 -0.0000 -0.3882
vn -0.0000 0.8535 0.5210
vn -0.9250 0.3799 -0.0000
vn -0.9216 -0.0000 0.3882
vn -0.9250 -0.3799 -0.0000
vt 0.000000 0.000000
vt 0.262217 1.000000
vt 0.000000 1.000000
vt 0.262217 0.000000
vt 0.544297 0.137475
vt 0.322715 0.949099
vt 0.318755 0.110025
vt 0.548256 0.976549
s 0
usemtl Material.002
f 105/76/29 77/77/29 84/78/29
f 77/79/30 86/78/30 84/76/30
f 101/76/31 79/77/31 88/78/31
f 79/79/32 83/78/32 88/76/32
f 94/79/33 74/78/33 91/76/33
f 92/79/34 79/78/34 97/76/34
f 89/79/35 74/78/35 78/76/35
f 89/80/36 112/81/36 113/82/36
f 99/79/31 78/78/31 94/76/31
f 101/79/31 89/78/31 99/76/31
f 85/79/37 80/78/37 76/76/37
f 94/83/38 119/82/38 95/80/38
f 103/79/29 76/78/29 90/76/29
f 105/79/29 85/78/29 103/76/29
f 83/79/29 102/78/29 82/76/29
f 102/79/39 139/78/39 103/76/39
f 74/76/29 102/77/29 91/78/29
f 102/79/29 90/78/29 91/76/29
f 86/79/31 98/78/31 87/76/31
f 100/79/31 99/78/31 98/76/31
f 80/76/31 98/77/31 95/78/31
f 98/79/31 94/78/31 95/76/31
f 77/79/40 96/78/40 81/76/40
f 91/83/41 118/82/41 94/80/41
f 80/79/42 90/78/42 76/76/42
f 86/83/43 108/82/43 84/80/43
f 81/79/31 100/78/31 86/76/31
f 96/79/31 101/78/31 100/76/31
f 75/79/29 104/78/29 83/76/29
f 92/79/29 105/78/29 104/76/29
f 120/79/44 137/78/44 121/76/44
f 112/79/45 129/78/45 113/76/45
f 118/79/46 135/78/46 119/76/46
f 111/79/47 126/78/47 110/76/47
f 89/83/48 106/82/48 82/80/48
f 96/83/49 121/82/49 97/80/49
f 82/83/50 107/82/50 83/80/50
f 83/83/51 112/82/51 88/80/51
f 91/80/52 114/81/52 115/82/52
f 85/80/53 108/81/53 109/82/53
f 93/83/54 120/82/54 96/80/54
f 97/83/55 116/82/55 92/80/55
f 92/83/56 117/82/56 93/80/56
f 85/83/57 111/82/57 87/80/57
f 95/83/58 114/82/58 90/80/58
f 87/83/59 110/82/59 86/80/59
f 128/79/60 122/78/60 129/76/60
f 124/79/61 127/78/61 125/76/61
f 133/79/62 137/78/62 136/76/62
f 135/79/39 131/78/39 130/76/39
f 113/79/63 122/78/63 106/76/63
f 117/79/64 136/78/64 120/76/64
f 107/79/65 128/78/65 112/76/65
f 121/79/66 132/78/66 116/76/66
f 109/79/67 127/78/67 111/76/67
f 119/79/68 130/78/68 114/76/68
f 110/79/69 124/78/69 108/76/69
f 106/79/70 123/78/70 107/76/70
f 115/79/71 134/78/71 118/76/71
f 114/79/72 131/78/72 115/76/72
f 108/79/73 125/78/73 109/76/73
f 117/76/74 132/77/74 133/78/74
f 140/79/29 139/78/29 138/76/29
f 104/79/60 138/78/60 102/76/60
f 103/79/61 141/78/61 105/76/61
f 105/79/62 140/78/62 104/76/62
f 105/76/29 93/79/29 77/77/29
f 77/79/30 81/77/30 86/78/30
f 101/76/31 97/79/31 79/77/31
f 79/79/32 75/77/32 83/78/32
f 94/79/33 78/77/33 74/78/33
f 92/79/34 75/77/34 79/78/34
f 89/79/35 82/77/35 74/78/35
f 89/80/36 88/83/36 112/81/36
f 99/79/31 89/77/31 78/78/31
f 101/79/31 88/77/31 89/78/31
f 85/79/37 87/77/37 80/78/37
f 94/83/38 118/81/38 119/82/38
f 103/79/29 85/77/29 76/78/29
f 105/79/29 84/77/29 85/78/29
f 83/79/29 104/77/29 102/78/29
f 102/79/39 138/77/39 139/78/39
f 74/76/29 82/79/29 102/77/29
f 102/79/29 103/77/29 90/78/29
f 86/79/31 100/77/31 98/78/31
f 100/79/31 101/77/31 99/78/31
f 80/76/31 87/79/31 98/77/31
f 98/79/31 99/77/31 94/78/31
f 77/79/40 93/77/40 96/78/40
f 91/83/41 115/81/41 118/82/41
f 80/79/42 95/77/42 90/78/42
f 86/83/43 110/81/43 108/82/43
f 81/79/31 96/77/31 100/78/31
f 96/79/31 97/77/31 101/78/31
f 75/79/29 92/77/29 104/78/29
f 92/79/29 93/77/29 105/78/29
f 120/79/44 136/77/44 137/78/44
f 112/79/45 128/77/45 129/78/45
f 118/79/46 134/77/46 135/78/46
f 111/79/47 127/77/47 126/78/47
f 89/83/48 113/81/48 106/82/48
f 96/83/49 120/81/49 121/82/49
f 82/83/50 106/81/50 107/82/50
f 83/83/51 107/81/51 112/82/51
f 91/80/52 90/83/52 114/81/52
f 85/80/53 84/83/53 108/81/53
f 93/83/54 117/81/54 120/82/54
f 97/83/55 121/81/55 116/82/55
f 92/83/56 116/81/56 117/82/56
f 85/83/57 109/81/57 111/82/57
f 95/83/58 119/81/58 114/82/58
f 87/83/59 111/81/59 110/82/59
f 128/79/60 123/77/60 122/78/60
f 124/79/61 126/77/61 127/78/61
f 133/79/62 132/77/62 137/78/62
f 135/79/39 134/77/39 131/78/39
f 113/79/63 129/77/63 122/78/63
f 117/79/64 133/77/64 136/78/64
f 107/79/65 123/77/65 128/78/65
f 121/79/66 137/77/66 132/78/66
f 109/79/67 125/77/67 127/78/67
f 119/79/68 135/77/68 130/78/68
f 110/79/69 126/77/69 124/78/69
f 106/79/70 122/77/70 123/78/70
f 115/79/71 131/77/71 134/78/71
f 114/79/72 130/77/72 131/78/72
f 108/79/73 124/77/73 125/78/73
f 117/76/74 116/79/74 132/77/74
f 140/79/29 141/77/29 139/78/29
f 104/79/60 140/77/60 138/78/60
f 103/79/61 139/77/61 141/78/61
f 105/79/62 141/77/62 140/78/62
