# Blender 4.2.3 LTS
# www.blender.org
mtllib rod.mtl
o Cube
v 0.097187 0.155225 -0.499437
v 0.111075 -0.159160 -0.499437
v 0.097187 0.155225 0.499121
v 0.111075 -0.159160 0.499121
v -0.091683 0.155225 -0.499437
v -0.103667 -0.159160 -0.499437
v -0.091683 0.155225 0.499121
v -0.103667 -0.159160 0.499121
v 0.181290 -0.000422 -0.499437
v -0.172968 -0.000422 0.499121
v 0.181290 -0.000422 0.499121
v -0.172968 -0.000422 -0.499437
vn -0.0000 -0.0000 -1.0000
vn -0.8864 0.4629 -0.0000
vn -0.0000 -0.0000 1.0000
vn 0.8798 0.4754 -0.0000
vn -0.0000 1.0000 -0.0000
vn -0.0000 -1.0000 -0.0000
vn 0.9145 -0.4045 -0.0000
vn -0.9165 -0.4001 -0.0000
vt 0.005952 0.256579
vt 0.999233 0.500000
vt 0.005952 0.506579
vt 0.999233 0.000000
vt 0.005952 0.006579
vt 0.005952 1.006579
vt 0.988095 0.736842
vt 0.005952 0.756579
vt 0.999233 0.750000
vt 0.004464 0.506579
vt 0.988095 0.486842
vt 0.019345 0.763158
vt 0.019345 0.513158
vt 0.988095 0.236842
vt 0.988095 -0.013158
vt 0.999233 0.250000
vt 0.988095 0.986842
vt 0.999233 1.000000
vt 0.004464 0.756579
s 0
usemtl Material
f 12/1/1 1/2/1 9/3/1
f 7/4/2 12/1/2 10/5/2
f 10/6/3 4/7/3 11/8/3
f 1/2/4 11/8/4 9/3/4
f 3/9/3 10/6/3 11/8/3
f 5/10/5 3/9/5 1/2/5
f 2/11/6 8/12/6 6/13/6
f 9/3/7 4/7/7 2/11/7
f 10/5/8 6/14/8 8/15/8
f 12/1/1 2/11/1 6/14/1
f 12/1/1 5/16/1 1/2/1
f 7/4/2 5/16/2 12/1/2
f 10/6/3 8/17/3 4/7/3
f 1/2/4 3/9/4 11/8/4
f 3/9/3 7/18/3 10/6/3
f 5/10/5 7/19/5 3/9/5
f 2/11/6 4/7/6 8/12/6
f 9/3/7 11/8/7 4/7/7
f 10/5/8 12/1/8 6/14/8
f 12/1/1 9/3/1 2/11/1
