# Blender 4.2.3 LTS
# www.blender.org
mtllib flywheel_large_axle.mtl
o Cube
v 0.091486 0.091486 -0.499583
v 0.091486 -0.091486 -0.499583
v 0.091486 0.091486 0.499583
v 0.091486 -0.091486 0.499583
v -0.091486 0.091486 -0.499583
v -0.091486 -0.091486 -0.499583
v -0.091486 0.091486 0.499583
v -0.091486 -0.091486 0.499583
v -0.091595 -0.091595 0.000000
v 0.091595 -0.091595 0.000000
v -0.091595 0.091595 -0.000000
v 0.091595 0.091595 -0.000000
v -0.091595 0.091595 -0.192416
v 0.091595 0.091595 -0.192416
v -0.091595 -0.091595 -0.192416
v 0.091595 -0.091595 -0.192416
v -0.091595 -0.091595 0.192416
v 0.091595 -0.091595 0.192416
v -0.091595 0.091595 0.192416
v 0.091595 0.091595 0.192416
v -0.076205 -0.152410 0.000000
v -0.076205 -0.152410 -0.158575
v -0.076205 -0.152410 0.158575
v -0.076205 0.152410 -0.000000
v -0.076205 0.152410 -0.158575
v -0.076205 0.152410 0.158575
v 0.076205 -0.152410 0.000000
v -0.152410 0.076205 -0.000000
v 0.076205 -0.152410 -0.158575
v -0.152410 0.076205 -0.158575
v -0.152410 0.076205 0.158575
v 0.076205 -0.152410 0.158575
v 0.076205 0.152410 -0.000000
v 0.076205 0.152410 -0.158575
v -0.152410 -0.076205 0.000000
v 0.076205 0.152410 0.158575
v -0.152410 -0.076205 -0.158575
v -0.152410 -0.076205 0.158575
v 0.152410 0.076205 -0.000000
v 0.152410 0.076205 -0.158575
v 0.152410 0.076205 0.158575
v 0.152410 -0.076205 0.000000
v 0.152410 -0.076205 -0.158575
v 0.152410 -0.076205 0.158575
vn -0.0000 -0.0000 1.0000
vn 0.9694 -0.2456 0.0004
vn -0.0000 0.9844 -0.1759
vn 0.9844 -0.0000 -0.1759
vn 0.9694 0.2453 -0.0000
vn -0.2453 0.9694 -0.0000
vn -0.9694 0.2453 -0.0000
vn -1.0000 -0.0000 -0.0000
vn 0.2456 -0.9694 -0.0004
vn 1.0000 -0.0000 -0.0000
vn -0.9844 -0.0000 -0.1759
vn 0.9694 0.2456 0.0004
vn 0.9694 -0.2453 -0.0000
vn -0.9694 -0.2456 0.0004
vn -0.9694 -0.2453 -0.0000
vn -0.9694 -0.2456 -0.0004
vn 0.2453 0.9694 -0.0000
vn 0.2456 0.9694 -0.0004
vn -0.0000 -0.0000 -1.0000
vn 0.2453 -0.9694 -0.0000
vn -0.0000 1.0000 -0.0000
vn -0.0000 -0.9844 0.1759
vn 0.9844 -0.0000 0.1759
vn -0.2456 -0.9694 -0.0004
vn -0.0000 -0.9844 -0.1759
vn -0.2453 -0.9694 -0.0000
vn -0.0000 0.9844 0.1759
vn -0.2456 -0.9694 0.0004
vn -0.9694 0.2456 0.0004
vn -0.2456 0.9694 -0.0004
vn -0.9694 0.2456 -0.0004
vn -0.2456 0.9694 0.0004
vn -0.9844 -0.0000 0.1759
vn 0.2456 0.9694 0.0004
vn 0.9694 0.2456 -0.0004
vn 0.9694 -0.2456 -0.0004
vn 0.2456 -0.9694 0.0004
vn -0.0000 -1.0000 -0.0000
vt 1.000000 1.000000
vt 0.000000 0.000000
vt 1.000000 0.000000
vt 0.720944 0.344769
vt 0.765836 0.494582
vt 0.720943 0.479715
vt 0.456187 0.633913
vt 0.281231 0.783726
vt 0.326326 0.633913
vt 0.501283 0.783726
vt 0.675942 0.633913
vt 0.720944 0.783726
vt 0.456187 0.564247
vt 0.501282 0.479715
vt 0.501282 0.564247
vt 0.281231 0.479715
vt 0.236245 0.564247
vt 0.236245 0.494582
vt 0.281231 0.648780
vt 0.326326 0.564247
vt 0.236245 0.633913
vt 0.326326 0.494582
vt 0.106572 0.633913
vt 0.106572 0.564247
vt 0.720943 0.648780
vt 0.546269 0.564247
vt 0.675942 0.494582
vt 0.675942 0.564247
vt 0.501282 0.648780
vt 0.106572 0.494582
vt 0.061570 0.783726
vt 0.456187 0.494582
vt 0.501282 0.344769
vt 0.000000 1.000000
vt 0.765836 0.564247
vt 0.720943 0.564247
vt 0.016677 0.494582
vt 0.061570 0.344769
vt 0.061571 0.479715
vt 0.061570 0.648780
vt 0.016677 0.564247
vt 0.061571 0.564247
vt 0.016677 0.633913
vt 0.546269 0.633913
vt 0.546269 0.494582
vt 0.765836 0.633913
vt 0.895324 0.494582
vt 0.940216 0.344769
vt 0.940216 0.783726
vt 0.281231 0.344769
vt 0.281231 0.564247
vt 0.895323 0.564247
vt 0.895323 0.633913
s 0
usemtl Material
f 4/1/1 7/2/1 8/3/1
f 4/4/2 32/5/2 18/6/2
f 34/7/3 5/8/3 25/9/3
f 1/10/4 43/11/4 2/12/4
f 33/13/5 20/14/5 12/15/5
f 19/16/6 28/17/6 31/18/6
f 13/19/7 24/20/7 25/9/7
f 34/7/3 1/10/3 5/8/3
f 28/17/6 13/19/6 30/21/6
f 24/20/7 19/16/7 26/22/7
f 28/17/8 37/23/8 35/24/8
f 2/12/9 43/11/9 16/25/9
f 39/26/10 44/27/10 42/28/10
f 33/13/5 14/29/5 34/7/5
f 38/30/8 31/18/8 28/17/8
f 37/23/11 5/8/11 6/31/11
f 36/32/12 3/33/12 20/14/12
f 4/1/1 3/34/1 7/2/1
f 18/6/13 27/35/13 10/36/13
f 23/37/14 8/38/14 17/39/14
f 15/40/15 21/41/15 9/42/15
f 6/31/16 22/43/16 15/40/16
f 21/41/15 17/39/15 9/42/15
f 39/26/17 14/29/17 12/15/17
f 40/44/18 1/10/18 14/29/18
f 39/26/17 20/14/17 41/45/17
f 5/34/19 2/3/19 6/1/19
f 18/6/20 42/28/20 44/27/20
f 1/10/4 40/44/4 43/11/4
f 24/20/21 36/32/21 33/13/21
f 16/25/13 27/35/13 29/46/13
f 23/47/22 4/4/22 8/48/22
f 44/27/23 3/33/23 4/4/23
f 16/25/20 42/28/20 10/36/20
f 37/23/24 6/31/24 15/40/24
f 29/46/25 6/49/25 2/12/25
f 17/39/26 35/24/26 9/42/26
f 3/33/27 26/22/27 7/50/27
f 35/24/26 15/40/26 9/42/26
f 8/38/28 38/30/28 17/39/28
f 26/22/29 19/16/29 7/50/29
f 30/21/30 13/19/30 5/8/30
f 33/13/5 36/32/5 20/14/5
f 19/16/6 11/51/6 28/17/6
f 13/19/7 11/51/7 24/20/7
f 5/8/31 13/19/31 25/9/31
f 28/17/8 30/21/8 37/23/8
f 28/17/6 11/51/6 13/19/6
f 7/50/32 19/16/32 31/18/32
f 24/20/7 11/51/7 19/16/7
f 33/13/5 12/15/5 14/29/5
f 35/24/8 38/30/8 28/17/8
f 42/28/10 43/11/10 40/44/10
f 7/50/33 38/30/33 8/38/33
f 18/6/13 32/5/13 27/35/13
f 41/45/34 20/14/34 3/33/34
f 15/40/15 22/43/15 21/41/15
f 21/41/15 23/37/15 17/39/15
f 39/26/17 40/44/17 14/29/17
f 39/26/17 12/15/17 20/14/17
f 34/7/35 14/29/35 1/10/35
f 18/6/20 10/36/20 42/28/20
f 39/26/10 41/45/10 44/27/10
f 16/25/13 10/36/13 27/35/13
f 2/12/36 16/25/36 29/46/36
f 16/25/20 43/11/20 42/28/20
f 4/4/37 18/6/37 44/27/37
f 17/39/26 38/30/26 35/24/26
f 35/24/26 37/23/26 15/40/26
f 27/35/38 23/47/38 21/52/38
f 42/28/10 40/44/10 39/26/10
f 37/23/11 30/21/11 5/8/11
f 5/34/19 1/2/19 2/3/19
f 34/7/21 25/9/21 24/20/21
f 24/20/21 26/22/21 36/32/21
f 33/13/21 34/7/21 24/20/21
f 23/47/22 32/5/22 4/4/22
f 44/27/23 41/45/23 3/33/23
f 29/46/25 22/53/25 6/49/25
f 3/33/27 36/32/27 26/22/27
f 7/50/33 31/18/33 38/30/33
f 21/52/38 22/53/38 29/46/38
f 27/35/38 32/5/38 23/47/38
f 21/52/38 29/46/38 27/35/38
