# Blender 4.2.3 LTS
# www.blender.org
mtllib small_crankshaft.mtl
o axle
v 0.046541 0.145562 0.166497
v 0.046541 -0.145562 0.166497
v 0.046541 0.145562 0.196247
v 0.046541 -0.145562 0.196247
v -0.047143 0.145562 0.166497
v -0.047143 -0.145562 0.166497
v -0.047143 0.145562 0.196247
v -0.047143 -0.145562 0.196247
v 0.046541 0.145562 -0.196632
v 0.046541 -0.145562 -0.196632
v 0.046541 0.145562 -0.166882
v 0.046541 -0.145562 -0.166882
v -0.047143 0.145562 -0.196632
v -0.047143 -0.145562 -0.196632
v -0.047143 0.145562 -0.166882
v -0.047143 -0.145562 -0.166882
v -0.030476 0.039487 0.172199
v -0.030476 0.103007 0.172199
v -0.030476 0.039487 -0.172199
v -0.030476 0.103007 -0.172199
v 0.022216 0.039487 0.172199
v 0.022216 0.103007 0.172199
v 0.022216 0.039487 -0.172199
v 0.022216 0.103007 -0.172199
v 0.123181 -0.124709 0.475122
v 0.123181 -0.124709 0.498377
v 0.123181 0.125291 0.498377
v 0.123181 0.125291 0.475122
v -0.126819 -0.124709 0.498377
v -0.126819 0.125291 0.498377
v -0.126819 -0.124709 0.475122
v -0.126819 0.125291 0.475122
v 0.029431 -0.030959 0.195760
v 0.029431 -0.030959 0.475122
v 0.029431 0.031541 0.475122
v 0.029431 0.031541 0.195760
v -0.033069 -0.030959 0.475122
v -0.033069 0.031541 0.475122
v -0.033069 -0.030959 0.195760
v -0.033069 0.031541 0.195760
v -0.001819 -0.043903 0.195760
v -0.001819 -0.043903 0.475122
v 0.042375 0.000291 0.475122
v 0.042375 0.000291 0.195760
v -0.046013 0.000291 0.475122
v -0.001819 0.044485 0.475122
v -0.046013 0.000291 0.195760
v -0.001819 0.044485 0.195760
v 0.060681 -0.062209 0.463494
v 0.060681 -0.062209 0.486749
v 0.060681 0.062791 0.486749
v 0.060681 0.062791 0.463494
v -0.064319 -0.062209 0.486749
v -0.064319 0.062791 0.486749
v -0.064319 -0.062209 0.463494
v -0.064319 0.062791 0.463494
v -0.123181 -0.124709 -0.475122
v -0.123181 -0.124709 -0.498377
v -0.123181 0.125291 -0.498377
v -0.123181 0.125291 -0.475122
v 0.126819 -0.124709 -0.498377
v 0.126819 0.125291 -0.498377
v 0.126819 -0.124709 -0.475122
v 0.126819 0.125291 -0.475122
v -0.029431 -0.030959 -0.195760
v -0.029431 -0.030959 -0.475122
v -0.029431 0.031541 -0.475122
v -0.029431 0.031541 -0.195760
v 0.033069 -0.030959 -0.475122
v 0.033069 0.031541 -0.475122
v 0.033069 -0.030959 -0.195760
v 0.033069 0.031541 -0.195760
v 0.001819 -0.043903 -0.195760
v 0.001819 -0.043903 -0.475122
v -0.042375 0.000291 -0.475122
v -0.042375 0.000291 -0.195760
v 0.046013 0.000291 -0.475122
v 0.001819 0.044485 -0.475122
v 0.046013 0.000291 -0.195760
v 0.001819 0.044485 -0.195760
v -0.060681 -0.062209 -0.463494
v -0.060681 -0.062209 -0.486749
v -0.060681 0.062791 -0.486749
v -0.060681 0.062791 -0.463494
v 0.064319 -0.062209 -0.486749
v 0.064319 0.062791 -0.486749
v 0.064319 -0.062209 -0.463494
v 0.064319 0.062791 -0.463494
vn 1.0000 -0.0000 -0.0000
vn -0.0000 -0.0000 1.0000
vn -1.0000 -0.0000 -0.0000
vn -0.0000 -0.0000 -1.0000
vn -0.0000 1.0000 -0.0000
vn -0.0000 -1.0000 -0.0000
vn 0.7071 -0.7071 -0.0000
vn -0.7071 0.7071 -0.0000
vn -0.7071 -0.7071 -0.0000
vn 0.7071 0.7071 -0.0000
vt 0.945571 0.320295
vt 0.320295 0.320295
vt 0.320295 0.493244
vt 0.625000 0.000000
vt 0.375000 0.250000
vt 0.375000 0.000000
vt 0.625000 0.250000
vt 0.375000 0.500000
vt 0.625000 0.750000
vt 0.375000 0.750000
vt 0.375000 1.000000
vt 0.125000 0.750000
vt 0.125000 0.500000
vt 0.875000 0.500000
vt 0.625000 0.500000
vt 0.258366 0.816482
vt 0.280433 0.904751
vt 0.258366 0.904751
vt 0.595811 0.176537
vt 0.507543 0.088268
vt 0.595811 0.088268
vt 0.200593 0.904751
vt 0.178526 0.816482
vt 0.200593 0.816482
vt 0.595811 0.000000
vt 0.507543 0.000000
vt 0.236299 0.816482
vt 0.214232 0.904751
vt 0.214232 0.816482
vt 0.236299 0.904751
vt 0.595811 0.375141
vt 0.573744 0.595811
vt 0.573744 0.375141
vt 0.994706 0.617879
vt 0.972639 0.595812
vt 0.994706 0.595812
vt 0.627019 0.220671
vt 0.649086 0.000000
vt 0.649086 0.220671
vt 0.972639 0.639946
vt 0.972639 0.617879
vt 0.662013 0.485476
vt 0.639946 0.264805
vt 0.662013 0.264805
vt 0.671153 0.220671
vt 0.741658 0.485476
vt 0.726054 0.706147
vt 0.726054 0.485476
vt 0.889664 0.617878
vt 0.867597 0.595811
vt 0.889664 0.595811
vt 0.611415 0.220671
vt 0.627019 0.000000
vt 0.900431 0.375141
vt 0.878364 0.397207
vt 0.878364 0.375141
vt 0.757261 0.706147
vt 0.757261 0.485476
vt 0.595811 0.220671
vt 0.035705 0.948885
vt 0.057772 0.993019
vt 0.035705 0.993019
vt 0.419275 0.875123
vt 0.375141 0.830989
vt 0.419275 0.830989
vt 0.956946 0.970952
vt 0.934879 0.926818
vt 0.956946 0.926818
vt 0.331006 0.875123
vt 0.331006 0.830989
vt 0.975773 0.088268
vt 0.953706 0.132403
vt 0.953706 0.088268
vt 0.979013 0.926818
vt 0.979013 0.970952
vt 0.280433 0.816482
vt 0.507543 0.176537
vt 0.178526 0.904751
vt 0.595811 0.595811
vt 0.994706 0.639946
vt 0.639946 0.485476
vt 0.671153 0.000000
vt 0.741658 0.706147
vt 0.867597 0.617878
vt 0.611415 0.000000
vt 0.900431 0.397207
vt 0.057772 0.948885
vt 0.375141 0.875123
vt 0.934879 0.970952
vt 0.975773 0.132403
vt 0.945571 0.493244
vt 0.625000 1.000000
vt 0.875000 0.750000
s 0
usemtl 
f 2/1/1 1/2/1 3/3/1
f 4/1/2 3/2/2 7/3/2
f 8/1/3 7/2/3 5/3/3
f 6/1/4 5/2/4 1/3/4
f 7/1/5 3/2/5 1/3/5
f 4/1/6 8/2/6 6/3/6
f 18/4/3 19/5/3 17/6/3
f 20/7/4 23/8/4 19/5/4
f 23/8/1 22/9/1 21/10/1
f 22/9/2 17/11/2 21/10/2
f 23/8/6 17/12/6 19/13/6
f 20/14/5 22/9/5 24/15/5
f 2/1/1 3/3/1 4/91/1
f 4/1/2 7/3/2 8/91/2
f 8/1/3 5/3/3 6/91/3
f 6/1/4 1/3/4 2/91/4
f 7/1/5 1/3/5 5/91/5
f 4/1/6 6/3/6 2/91/6
f 18/4/3 20/7/3 19/5/3
f 20/7/4 24/15/4 23/8/4
f 23/8/1 24/15/1 22/9/1
f 22/9/2 18/92/2 17/11/2
f 23/8/6 21/10/6 17/12/6
f 20/14/5 18/93/5 22/9/5
usemtl 
f 10/1/1 9/2/1 11/3/1
f 12/1/2 11/2/2 15/3/2
f 16/1/3 15/2/3 13/3/3
f 14/1/4 13/2/4 9/3/4
f 15/1/5 11/2/5 9/3/5
f 12/1/6 16/2/6 14/3/6
f 10/1/1 11/3/1 12/91/1
f 12/1/2 15/3/2 16/91/2
f 16/1/3 13/3/3 14/91/3
f 14/1/4 9/3/4 10/91/4
f 15/1/5 9/3/5 13/91/5
f 12/1/6 14/3/6 10/91/6
usemtl 
f 28/16/1 26/17/1 25/18/1
f 27/19/2 29/20/2 26/21/2
f 30/22/3 31/23/3 29/24/3
f 32/25/4 25/20/4 31/26/4
f 26/27/6 31/28/6 25/29/6
f 28/30/5 30/16/5 27/18/5
f 36/31/1 34/32/1 33/33/1
f 35/34/2 37/35/2 34/36/2
f 38/37/3 39/38/3 37/39/3
f 40/34/4 33/40/4 39/41/4
f 34/42/6 39/43/6 33/44/6
f 36/38/5 38/45/5 35/39/5
f 44/46/7 42/47/7 41/48/7
f 43/49/2 45/50/2 42/51/2
f 46/52/8 47/53/8 45/37/8
f 47/54/4 44/55/4 41/56/4
f 42/57/9 47/46/9 41/58/9
f 44/25/10 46/52/10 43/59/10
f 52/60/1 50/61/1 49/62/1
f 51/63/2 53/64/2 50/65/2
f 54/66/3 55/67/3 53/68/3
f 56/64/4 49/69/4 55/70/4
f 50/71/6 55/72/6 49/73/6
f 52/66/5 54/74/5 51/75/5
f 28/16/1 27/76/1 26/17/1
f 27/19/2 30/77/2 29/20/2
f 30/22/3 32/78/3 31/23/3
f 32/25/4 28/21/4 25/20/4
f 26/27/6 29/30/6 31/28/6
f 28/30/5 32/27/5 30/16/5
f 36/31/1 35/79/1 34/32/1
f 35/34/2 38/41/2 37/35/2
f 38/37/3 40/53/3 39/38/3
f 40/34/4 36/80/4 33/40/4
f 34/42/6 37/81/6 39/43/6
f 36/38/5 40/82/5 38/45/5
f 44/46/7 43/83/7 42/47/7
f 43/49/2 46/84/2 45/50/2
f 46/52/8 48/85/8 47/53/8
f 47/54/4 48/86/4 44/55/4
f 42/57/9 45/83/9 47/46/9
f 44/25/10 48/85/10 46/52/10
f 52/60/1 51/87/1 50/61/1
f 51/63/2 54/88/2 53/64/2
f 54/66/3 56/89/3 55/67/3
f 56/64/4 52/88/4 49/69/4
f 50/71/6 53/90/6 55/72/6
f 52/66/5 56/68/5 54/74/5
usemtl 
f 60/16/3 58/17/3 57/18/3
f 59/19/4 61/20/4 58/21/4
f 62/22/1 63/23/1 61/24/1
f 64/25/2 57/20/2 63/26/2
f 58/27/6 63/28/6 57/29/6
f 60/30/5 62/16/5 59/18/5
f 68/31/3 66/32/3 65/33/3
f 67/34/4 69/35/4 66/36/4
f 70/37/1 71/38/1 69/39/1
f 72/34/2 65/40/2 71/41/2
f 66/42/6 71/43/6 65/44/6
f 68/38/5 70/45/5 67/39/5
f 76/46/9 74/47/9 73/48/9
f 75/49/4 77/50/4 74/51/4
f 78/52/10 79/53/10 77/37/10
f 79/54/2 76/55/2 73/56/2
f 74/57/7 79/46/7 73/58/7
f 76/25/8 78/52/8 75/59/8
f 84/60/3 82/61/3 81/62/3
f 83/63/4 85/64/4 82/65/4
f 86/66/1 87/67/1 85/68/1
f 88/64/2 81/69/2 87/70/2
f 82/71/6 87/72/6 81/73/6
f 84/66/5 86/74/5 83/75/5
f 60/16/3 59/76/3 58/17/3
f 59/19/4 62/77/4 61/20/4
f 62/22/1 64/78/1 63/23/1
f 64/25/2 60/21/2 57/20/2
f 58/27/6 61/30/6 63/28/6
f 60/30/5 64/27/5 62/16/5
f 68/31/3 67/79/3 66/32/3
f 67/34/4 70/41/4 69/35/4
f 70/37/1 72/53/1 71/38/1
f 72/34/2 68/80/2 65/40/2
f 66/42/6 69/81/6 71/43/6
f 68/38/5 72/82/5 70/45/5
f 76/46/9 75/83/9 74/47/9
f 75/49/4 78/84/4 77/50/4
f 78/52/10 80/85/10 79/53/10
f 79/54/2 80/86/2 76/55/2
f 74/57/7 77/83/7 79/46/7
f 76/25/8 80/85/8 78/52/8
f 84/60/3 83/87/3 82/61/3
f 83/63/4 86/88/4 85/64/4
f 86/66/1 88/89/1 87/67/1
f 88/64/2 84/88/2 81/69/2
f 82/71/6 85/90/6 87/72/6
f 84/66/5 88/68/5 86/74/5
o base
v 0.000000 -0.000000 1.000000
v 0.000000 0.000000 0.000000
v 0.000000 0.062500 0.000000
v 0.000000 0.062500 1.000000
v 1.000000 0.000000 0.000000
v 1.000000 0.062500 0.000000
v 1.000000 -0.000000 1.000000
v 1.000000 0.062500 1.000000
v 0.636724 0.034864 0.207548
v 0.636724 0.034864 0.145048
v 0.501529 0.459093 0.145048
v 0.501529 0.459093 0.207548
v 0.696165 0.054178 0.145048
v 0.560971 0.478407 0.145048
v 0.696165 0.054178 0.207548
v 0.560971 0.478407 0.207548
v 0.303835 0.054178 0.207548
v 0.303835 0.054178 0.145048
v 0.439029 0.478407 0.145048
v 0.439029 0.478407 0.207548
v 0.363276 0.034864 0.145048
v 0.498471 0.459093 0.145048
v 0.363276 0.034864 0.207548
v 0.498471 0.459093 0.207548
v 0.636724 0.034864 0.850205
v 0.636724 0.034864 0.787705
v 0.501529 0.459093 0.787705
v 0.501529 0.459093 0.850205
v 0.696165 0.054178 0.787705
v 0.560971 0.478407 0.787705
v 0.696165 0.054178 0.850205
v 0.560971 0.478407 0.850205
v 0.303835 0.054178 0.850205
v 0.303835 0.054178 0.787705
v 0.439029 0.478407 0.787705
v 0.439029 0.478407 0.850205
v 0.363276 0.034864 0.787705
v 0.498471 0.459093 0.787705
v 0.363276 0.034864 0.850205
v 0.498471 0.459093 0.850205
vn -1.0000 -0.0000 -0.0000
vn -0.0000 -0.0000 -1.0000
vn 1.0000 -0.0000 -0.0000
vn -0.0000 -0.0000 1.0000
vn -0.0000 -1.0000 -0.0000
vn -0.0000 1.0000 -0.0000
vn -0.9528 -0.3036 -0.0000
vn 0.9528 0.3036 -0.0000
vn 0.3090 -0.9511 -0.0000
vn -0.3090 0.9511 -0.0000
vn -0.9528 0.3036 -0.0000
vn 0.9528 -0.3036 -0.0000
vn -0.3090 -0.9511 -0.0000
vn 0.3090 0.9511 -0.0000
vt 0.061259 0.000330
vt 0.000887 0.999553
vt 0.000332 0.000353
vt 0.000483 0.999302
vt 0.999316 0.938778
vt 0.000455 0.938155
vt 0.938068 0.000732
vt 0.999783 0.999366
vt 0.999579 0.000471
vt 0.999551 0.062030
vt 0.000847 0.001045
vt 0.999050 0.001052
vt 0.000366 0.999551
vt 0.999524 0.000485
vt 0.000366 0.000485
vt 0.000084 0.000878
vt 0.999412 0.999507
vt 0.000337 0.999199
vt 0.061813 0.999529
vt 0.999343 0.999521
vt 0.938176 0.999540
vt 0.000476 0.061829
vt 0.999524 0.999551
vt 0.000084 0.000781
vt 0.999542 0.000781
vt 0.999193 0.999661
vt 0.556775 0.701637
vt 0.663344 0.750903
vt 0.663344 0.701637
vt 0.556775 0.750903
vt 0.710199 0.750903
vt 0.603631 0.750903
vt 0.710199 0.701637
vt 0.507509 0.701637
vt 0.400941 0.750903
vt 0.400941 0.701637
vt 0.554365 0.750903
vt 0.447796 0.750903
vt 0.447796 0.701637
vt 0.554365 0.701637
vt 0.507509 0.750903
vt 0.556775 0.195057
vt 0.663344 0.244323
vt 0.663344 0.195057
vt 0.556775 0.244323
vt 0.710199 0.244323
vt 0.603631 0.244323
vt 0.710199 0.195057
vt 0.507509 0.195057
vt 0.400941 0.244323
vt 0.400941 0.195057
vt 0.554365 0.244323
vt 0.447796 0.244323
vt 0.447796 0.195057
vt 0.554365 0.195057
vt 0.507509 0.244323
vt 0.603631 0.701637
vt 0.603631 0.195057
s 0
usemtl Material.001
f 92/94/11 90/95/11 89/96/11
f 91/97/12 93/98/12 90/99/12
f 94/100/13 95/101/13 93/102/13
f 96/103/14 89/104/14 95/105/14
f 90/106/15 95/107/15 89/108/15
f 92/109/16 94/110/16 91/111/16
f 92/94/11 91/112/11 90/95/11
f 91/97/12 94/113/12 93/98/12
f 94/100/13 96/114/13 95/101/13
f 96/103/14 92/115/14 89/104/14
f 90/106/15 93/116/15 95/107/15
f 92/117/16 96/118/16 94/119/16
f 100/120/17 98/121/17 97/122/17
f 99/123/12 101/124/12 98/121/12
f 102/125/18 103/126/18 101/124/18
f 103/126/14 100/120/14 97/122/14
f 98/121/19 103/126/19 97/122/19
f 100/120/20 102/125/20 99/123/20
f 108/127/21 106/128/21 105/129/21
f 106/128/12 110/130/12 109/131/12
f 110/130/22 111/132/22 109/131/22
f 112/133/14 105/129/14 111/132/14
f 106/128/23 111/132/23 105/129/23
f 108/127/24 110/130/24 107/134/24
f 116/135/17 114/136/17 113/137/17
f 115/138/12 117/139/12 114/136/12
f 118/140/18 119/141/18 117/139/18
f 119/141/14 116/135/14 113/137/14
f 114/136/19 119/141/19 113/137/19
f 116/135/20 118/140/20 115/138/20
f 124/142/21 122/143/21 121/144/21
f 122/143/12 126/145/12 125/146/12
f 126/145/22 127/147/22 125/146/22
f 128/148/14 121/144/14 127/147/14
f 122/143/23 127/147/23 121/144/23
f 124/142/24 126/145/24 123/149/24
f 100/120/17 99/123/17 98/121/17
f 99/123/12 102/125/12 101/124/12
f 102/125/18 104/150/18 103/126/18
f 103/126/14 104/150/14 100/120/14
f 98/121/19 101/124/19 103/126/19
f 100/120/20 104/150/20 102/125/20
f 108/127/21 107/134/21 106/128/21
f 106/128/12 107/134/12 110/130/12
f 110/130/22 112/133/22 111/132/22
f 112/133/14 108/127/14 105/129/14
f 106/128/23 109/131/23 111/132/23
f 108/127/24 112/133/24 110/130/24
f 116/135/17 115/138/17 114/136/17
f 115/138/12 118/140/12 117/139/12
f 118/140/18 120/151/18 119/141/18
f 119/141/14 120/151/14 116/135/14
f 114/136/19 117/139/19 119/141/19
f 116/135/20 120/151/20 118/140/20
f 124/142/21 123/149/21 122/143/21
f 122/143/12 123/149/12 126/145/12
f 126/145/22 128/148/22 127/147/22
f 128/148/14 124/142/14 121/144/14
f 122/143/23 125/146/23 127/147/23
f 124/142/24 128/148/24 126/145/24
