# Blender 4.2.3 LTS
# www.blender.org
mtllib handcranked_generator_base.mtl
o base
v 0.000000 0.000000 1.000000
v 0.000000 0.000000 0.000000
v 0.000000 0.062500 -0.000000
v 0.000000 0.062500 1.000000
v 1.000000 0.000000 0.000000
v 1.000000 0.062500 -0.000000
v 1.000000 0.000000 1.000000
v 1.000000 0.062500 1.000000
v 0.636724 0.034864 0.171875
v 0.636724 0.034864 0.109375
v 0.501529 0.459093 0.109375
v 0.501529 0.459093 0.171875
v 0.696165 0.054178 0.109375
v 0.560971 0.478407 0.109375
v 0.696165 0.054178 0.171875
v 0.560971 0.478407 0.171875
v 0.303835 0.054178 0.171875
v 0.303835 0.054178 0.109375
v 0.439029 0.478407 0.109375
v 0.439029 0.478407 0.171875
v 0.363276 0.034864 0.109375
v 0.498471 0.459093 0.109375
v 0.363276 0.034864 0.171875
v 0.498471 0.459093 0.171875
v 0.636724 0.034864 0.515625
v 0.636724 0.034864 0.453125
v 0.501529 0.459093 0.453125
v 0.501529 0.459093 0.515625
v 0.696165 0.054178 0.453125
v 0.560971 0.478407 0.453125
v 0.696165 0.054178 0.515625
v 0.560971 0.478407 0.515625
v 0.303835 0.054178 0.515625
v 0.303835 0.054178 0.453125
v 0.439029 0.478407 0.453125
v 0.439029 0.478407 0.515625
v 0.363276 0.034864 0.453125
v 0.498471 0.459093 0.453125
v 0.363276 0.034864 0.515625
v 0.498471 0.459093 0.515625
v 0.343750 0.343750 0.875000
v 0.343750 0.343750 0.562500
v 0.343750 0.656250 0.562500
v 0.343750 0.656250 0.875000
v 0.656250 0.343750 0.562500
v 0.656250 0.656250 0.562500
v 0.656250 0.343750 0.875000
v 0.656250 0.656250 0.875000
v 0.415254 0.343279 0.803496
v 0.415254 0.343279 0.634004
v 0.584746 0.343279 0.634004
v 0.584746 0.343279 0.803496
v 0.415254 0.064929 0.803496
v 0.415254 0.064929 0.634004
v 0.584746 0.064929 0.634004
v 0.584746 0.064929 0.803496
vn -1.0000 -0.0000 -0.0000
vn -0.0000 -0.0000 -1.0000
vn 1.0000 -0.0000 -0.0000
vn -0.0000 -0.0000 1.0000
vn -0.0000 -1.0000 -0.0000
vn -0.0000 1.0000 -0.0000
vn -0.9528 -0.3036 -0.0000
vn 0.9528 0.3036 -0.0000
vn 0.3090 -0.9511 -0.0000
vn -0.3090 0.9511 -0.0000
vn -0.9528 0.3036 -0.0000
vn 0.9528 -0.3036 -0.0000
vn -0.3090 -0.9511 -0.0000
vn 0.3090 0.9511 -0.0000
vn -0.0000 -1.0000 0.0066
vn 0.0066 -1.0000 -0.0000
vn -0.0000 -1.0000 -0.0066
vn -0.0066 -1.0000 -0.0000
vt 0.054400 0.013324
vt 0.004382 1.003618
vt 0.003922 0.013347
vt 0.000268 0.999881
vt 1.002200 0.931028
vt 0.000240 0.931433
vt 0.945157 0.004338
vt 1.001367 0.995871
vt 1.001586 0.007923
vt 1.002177 0.057786
vt -0.000701 0.010709
vt 1.002453 0.003668
vt -0.003609 1.001197
vt 1.005726 0.001066
vt -0.003609 0.001066
vt 1.005726 1.001197
vt 0.502602 0.829300
vt 0.639059 0.891808
vt 0.639059 0.829300
vt 0.060639 0.007607
vt 0.120418 0.997791
vt 0.060639 0.998577
vt 0.562599 0.891808
vt 0.699055 0.829300
vt 0.699055 0.891808
vt 0.502602 0.891808
vt 0.439518 0.829300
vt 0.303062 0.891808
vt 0.303062 0.829300
vt 0.120357 0.997790
vt 0.062130 0.007607
vt 0.062130 0.998577
vt 0.499515 0.891808
vt 0.363058 0.829300
vt 0.363058 0.891808
vt 0.499515 0.829300
vt 0.439518 0.891808
vt 0.502602 0.485505
vt 0.639059 0.548013
vt 0.639059 0.485505
vt 0.502602 0.548013
vt 0.699055 0.548013
vt 0.562599 0.548013
vt 0.699055 0.485505
vt 0.439518 0.485505
vt 0.303062 0.548013
vt 0.303062 0.485505
vt 0.499515 0.548013
vt 0.363058 0.548013
vt 0.363058 0.485505
vt 0.499515 0.485505
vt 0.439518 0.548013
vt 0.343350 0.126083
vt 0.343350 0.438624
vt 0.658767 0.438624
vt 0.658767 0.126083
vt 0.586595 0.197596
vt 0.054859 1.003595
vt 1.002227 0.999476
vt 0.944938 0.992286
vt -0.000977 0.064826
vt 0.120419 0.006821
vt 0.562599 0.829300
vt 0.120357 0.006820
vt 0.562599 0.485505
vt 0.586595 0.367110
vt 0.415522 0.367110
vt 0.415522 0.197596
s 0
usemtl Material.001
f 4/1/1 2/2/1 1/3/1
f 3/4/2 5/5/2 2/6/2
f 6/7/3 7/8/3 5/9/3
f 8/10/4 1/11/4 7/12/4
f 2/13/5 7/14/5 1/15/5
f 4/15/6 6/16/6 3/13/6
f 12/17/7 10/18/7 9/19/7
f 11/20/2 13/21/2 10/22/2
f 14/23/8 15/24/8 13/25/8
f 15/24/4 12/17/4 9/19/4
f 10/18/9 15/24/9 9/19/9
f 12/17/10 14/23/10 11/26/10
f 20/27/11 18/28/11 17/29/11
f 18/30/2 22/31/2 21/32/2
f 22/33/12 23/34/12 21/35/12
f 24/36/4 17/29/4 23/34/4
f 18/28/13 23/34/13 17/29/13
f 20/27/14 22/33/14 19/37/14
f 28/38/7 26/39/7 25/40/7
f 27/41/2 29/42/2 26/39/2
f 30/43/8 31/44/8 29/42/8
f 31/44/4 28/38/4 25/40/4
f 26/39/9 31/44/9 25/40/9
f 28/38/10 30/43/10 27/41/10
f 36/45/11 34/46/11 33/47/11
f 34/46/2 38/48/2 37/49/2
f 38/48/12 39/50/12 37/49/12
f 40/51/4 33/47/4 39/50/4
f 34/46/13 39/50/13 33/47/13
f 36/45/14 38/48/14 35/52/14
f 44/53/1 42/54/1 41/53/1
f 43/54/2 45/55/2 42/54/2
f 46/55/3 47/56/3 45/55/3
f 48/56/4 41/53/4 47/56/4
f 41/53/15 52/57/15 47/56/15
f 44/53/6 46/55/6 43/54/6
f 4/1/1 3/58/1 2/2/1
f 3/4/2 6/59/2 5/5/2
f 6/7/3 8/60/3 7/8/3
f 8/10/4 4/61/4 1/11/4
f 2/13/5 5/16/5 7/14/5
f 4/15/6 8/14/6 6/16/6
f 12/17/7 11/26/7 10/18/7
f 11/20/2 14/62/2 13/21/2
f 14/23/8 16/63/8 15/24/8
f 15/24/4 16/63/4 12/17/4
f 10/18/9 13/25/9 15/24/9
f 12/17/10 16/63/10 14/23/10
f 20/27/11 19/37/11 18/28/11
f 18/30/2 19/64/2 22/31/2
f 22/33/12 24/36/12 23/34/12
f 24/36/4 20/27/4 17/29/4
f 18/28/13 21/35/13 23/34/13
f 20/27/14 24/36/14 22/33/14
f 28/38/7 27/41/7 26/39/7
f 27/41/2 30/43/2 29/42/2
f 30/43/8 32/65/8 31/44/8
f 31/44/4 32/65/4 28/38/4
f 26/39/9 29/42/9 31/44/9
f 28/38/10 32/65/10 30/43/10
f 36/45/11 35/52/11 34/46/11
f 34/46/2 35/52/2 38/48/2
f 38/48/12 40/51/12 39/50/12
f 40/51/4 36/45/4 33/47/4
f 34/46/13 37/49/13 39/50/13
f 36/45/14 40/51/14 38/48/14
f 44/53/1 43/54/1 42/54/1
f 43/54/2 46/55/2 45/55/2
f 46/55/3 48/56/3 47/56/3
f 48/56/4 44/53/4 41/53/4
f 47/56/16 51/66/16 45/55/16
f 44/53/6 48/56/6 46/55/6
f 51/66/2 54/67/2 50/67/2
f 49/68/4 56/57/4 52/57/4
f 42/54/17 51/66/17 50/67/17
f 41/53/18 50/67/18 49/68/18
f 52/57/3 55/66/3 51/66/3
f 50/67/1 53/68/1 49/68/1
f 41/53/15 49/68/15 52/57/15
f 47/56/16 52/57/16 51/66/16
f 51/66/2 55/66/2 54/67/2
f 49/68/4 53/68/4 56/57/4
f 42/54/17 45/55/17 51/66/17
f 41/53/18 42/54/18 50/67/18
f 52/57/3 56/57/3 55/66/3
f 50/67/1 54/67/1 53/68/1
