# Blender 4.2.3 LTS
# www.blender.org
mtllib small_crankshaft_base.mtl
o base
v 0.000000 -0.000000 1.000000
v 0.000000 0.000000 0.000000
v 0.000000 0.062500 0.000000
v 0.000000 0.062500 1.000000
v 1.000000 0.000000 0.000000
v 1.000000 0.062500 0.000000
v 1.000000 -0.000000 1.000000
v 1.000000 0.062500 1.000000
v 0.636724 0.034864 0.207548
v 0.636724 0.034864 0.145048
v 0.501529 0.459093 0.145048
v 0.501529 0.459093 0.207548
v 0.696165 0.054178 0.145048
v 0.560971 0.478407 0.145048
v 0.696165 0.054178 0.207548
v 0.560971 0.478407 0.207548
v 0.303835 0.054178 0.207548
v 0.303835 0.054178 0.145048
v 0.439029 0.478407 0.145048
v 0.439029 0.478407 0.207548
v 0.363276 0.034864 0.145048
v 0.498471 0.459093 0.145048
v 0.363276 0.034864 0.207548
v 0.498471 0.459093 0.207548
v 0.636724 0.034864 0.850205
v 0.636724 0.034864 0.787705
v 0.501529 0.459093 0.787705
v 0.501529 0.459093 0.850205
v 0.696165 0.054178 0.787705
v 0.560971 0.478407 0.787705
v 0.696165 0.054178 0.850205
v 0.560971 0.478407 0.850205
v 0.303835 0.054178 0.850205
v 0.303835 0.054178 0.787705
v 0.439029 0.478407 0.787705
v 0.439029 0.478407 0.850205
v 0.363276 0.034864 0.787705
v 0.498471 0.459093 0.787705
v 0.363276 0.034864 0.850205
v 0.498471 0.459093 0.850205
vn -1.0000 -0.0000 -0.0000
vn -0.0000 -0.0000 -1.0000
vn 1.0000 -0.0000 -0.0000
vn -0.0000 -0.0000 1.0000
vn -0.0000 -1.0000 -0.0000
vn -0.0000 1.0000 -0.0000
vn -0.9528 -0.3036 -0.0000
vn 0.9528 0.3036 -0.0000
vn 0.3090 -0.9511 -0.0000
vn -0.3090 0.9511 -0.0000
vn -0.9528 0.3036 -0.0000
vn 0.9528 -0.3036 -0.0000
vn -0.3090 -0.9511 -0.0000
vn 0.3090 0.9511 -0.0000
vt 0.061259 0.000330
vt 0.000887 0.999553
vt 0.000332 0.000353
vt 0.000483 0.999302
vt 0.999316 0.938778
vt 0.000455 0.938155
vt 0.938068 0.000732
vt 0.999783 0.999366
vt 0.999579 0.000471
vt 0.999551 0.062030
vt 0.000847 0.001045
vt 0.999050 0.001052
vt 0.000366 0.999551
vt 0.999524 0.000485
vt 0.000366 0.000485
vt 0.000084 0.000878
vt 0.999412 0.999507
vt 0.000337 0.999199
vt 0.061813 0.999529
vt 0.999343 0.999521
vt 0.938176 0.999540
vt 0.000476 0.061829
vt 0.999524 0.999551
vt 0.000084 0.000781
vt 0.999542 0.000781
vt 0.999193 0.999661
vt 0.556775 0.701637
vt 0.663344 0.750903
vt 0.663344 0.701637
vt 0.556775 0.750903
vt 0.710199 0.750903
vt 0.603631 0.750903
vt 0.710199 0.701637
vt 0.507509 0.701637
vt 0.400941 0.750903
vt 0.400941 0.701637
vt 0.554365 0.750903
vt 0.447796 0.750903
vt 0.447796 0.701637
vt 0.554365 0.701637
vt 0.507509 0.750903
vt 0.556775 0.195057
vt 0.663344 0.244323
vt 0.663344 0.195057
vt 0.556775 0.244323
vt 0.710199 0.244323
vt 0.603631 0.244323
vt 0.710199 0.195057
vt 0.507509 0.195057
vt 0.400941 0.244323
vt 0.400941 0.195057
vt 0.554365 0.244323
vt 0.447796 0.244323
vt 0.447796 0.195057
vt 0.554365 0.195057
vt 0.507509 0.244323
vt 0.603631 0.701637
vt 0.603631 0.195057
s 0
usemtl Material.001
f 4/1/1 2/2/1 1/3/1
f 3/4/2 5/5/2 2/6/2
f 6/7/3 7/8/3 5/9/3
f 8/10/4 1/11/4 7/12/4
f 2/13/5 7/14/5 1/15/5
f 4/16/6 6/17/6 3/18/6
f 4/1/1 3/19/1 2/2/1
f 3/4/2 6/20/2 5/5/2
f 6/7/3 8/21/3 7/8/3
f 8/10/4 4/22/4 1/11/4
f 2/13/5 5/23/5 7/14/5
f 4/24/6 8/25/6 6/26/6
f 12/27/7 10/28/7 9/29/7
f 11/30/2 13/31/2 10/28/2
f 14/32/8 15/33/8 13/31/8
f 15/33/4 12/27/4 9/29/4
f 10/28/9 15/33/9 9/29/9
f 12/27/10 14/32/10 11/30/10
f 20/34/11 18/35/11 17/36/11
f 18/35/2 22/37/2 21/38/2
f 22/37/12 23/39/12 21/38/12
f 24/40/4 17/36/4 23/39/4
f 18/35/13 23/39/13 17/36/13
f 20/34/14 22/37/14 19/41/14
f 28/42/7 26/43/7 25/44/7
f 27/45/2 29/46/2 26/43/2
f 30/47/8 31/48/8 29/46/8
f 31/48/4 28/42/4 25/44/4
f 26/43/9 31/48/9 25/44/9
f 28/42/10 30/47/10 27/45/10
f 36/49/11 34/50/11 33/51/11
f 34/50/2 38/52/2 37/53/2
f 38/52/12 39/54/12 37/53/12
f 40/55/4 33/51/4 39/54/4
f 34/50/13 39/54/13 33/51/13
f 36/49/14 38/52/14 35/56/14
f 12/27/7 11/30/7 10/28/7
f 11/30/2 14/32/2 13/31/2
f 14/32/8 16/57/8 15/33/8
f 15/33/4 16/57/4 12/27/4
f 10/28/9 13/31/9 15/33/9
f 12/27/10 16/57/10 14/32/10
f 20/34/11 19/41/11 18/35/11
f 18/35/2 19/41/2 22/37/2
f 22/37/12 24/40/12 23/39/12
f 24/40/4 20/34/4 17/36/4
f 18/35/13 21/38/13 23/39/13
f 20/34/14 24/40/14 22/37/14
f 28/42/7 27/45/7 26/43/7
f 27/45/2 30/47/2 29/46/2
f 30/47/8 32/58/8 31/48/8
f 31/48/4 32/58/4 28/42/4
f 26/43/9 29/46/9 31/48/9
f 28/42/10 32/58/10 30/47/10
f 36/49/11 35/56/11 34/50/11
f 34/50/2 35/56/2 38/52/2
f 38/52/12 40/55/12 39/54/12
f 40/55/4 36/49/4 33/51/4
f 34/50/13 37/53/13 39/54/13
f 36/49/14 40/55/14 38/52/14
